<?xml version="1.0" standalone="no"?>
<!DOCTYPE svg PUBLIC "-//W3C//DTD SVG 1.1//EN" "http://www.w3.org/Graphics/SVG/1.1/DTD/svg11.dtd" >
<svg xmlns="http://www.w3.org/2000/svg">
<metadata></metadata>
<defs>
<font id="piron_v2_regular" horiz-adv-x="616" >
<font-face units-per-em="2048" ascent="1628" descent="-420" />
<missing-glyph horiz-adv-x="614" />
<glyph horiz-adv-x="2048" />
<glyph horiz-adv-x="2048" />
<glyph unicode="&#xd;" horiz-adv-x="2048" />
<glyph unicode=" "  horiz-adv-x="614" />
<glyph unicode="&#x09;" horiz-adv-x="614" />
<glyph unicode="&#xa0;" horiz-adv-x="614" />
<glyph unicode="!" horiz-adv-x="397" d="M133 1423q0 32 21 55t55 23q76 0 76 -78l-23 -1024q0 -24 -11 -40t-26.5 -19t-31 1t-26 20.5t-9.5 39.5zM141 59q0 -29 21 -44t49 -15t49 15t21 44v35q0 29 -21.5 45.5t-48.5 16.5t-48.5 -16.5t-21.5 -45.5v-35z" />
<glyph unicode="&#x22;" horiz-adv-x="624" d="M115 1448q0 26 15.5 39.5t39.5 13.5q22 0 37.5 -13.5t15.5 -39.5l-8 -205q0 -51 -45 -51q-47 0 -47 51zM332 1448q0 26 15.5 39.5t39.5 13.5q22 0 37.5 -13.5t15.5 -39.5l-8 -205q0 -51 -45 -51q-47 0 -47 51z" />
<glyph unicode="#" horiz-adv-x="1673" d="M143 553q0 27 16.5 45t47.5 18h270l72 267h-236q-30 0 -46.5 19t-16.5 46q0 26 16.5 45t46.5 19h271l96 358h-8q-40 0 -56 32t0 64.5t56 32.5h162q29 0 45.5 -20t16.5 -44.5t-16.5 -44.5t-45.5 -20h-21l-94 -356h377l96 356q-40 0 -56 32t0 64.5t56 32.5h162 q40 0 56 -32.5t0 -64.5t-56 -32h-29l-96 -358h237q30 0 47 -19t17 -45q0 -27 -17 -46t-47 -19h-270l-72 -267h236q30 0 46.5 -18.5t16.5 -44.5q0 -27 -16.5 -46.5t-46.5 -19.5h-270l-95 -358h13q29 0 45.5 -20t16.5 -44.5t-16.5 -44.5t-45.5 -20h-162q-40 0 -56 32t0 64.5 t56 32.5h14l94 358h-376l-97 -358h6q29 0 45.5 -20t16.5 -44.5t-16.5 -44.5t-45.5 -20h-163q-29 0 -45.5 20t-16.5 44.5t16.5 44.5t45.5 20h24l94 358h-235q-30 0 -47 19.5t-17 46.5zM612 616h377l72 267h-377z" />
<glyph unicode="$" horiz-adv-x="1218" d="M133 416q0 3 0.5 7t4 15t9.5 19t18 15t28 7q62 0 65 -59v-8q1 -137 95 -212t237 -73q86 0 166 33t135 101.5t55 156.5q0 228 -319 303q-232 54 -348.5 150.5t-116.5 254.5q0 147 107.5 249t256.5 122v70q0 30 19.5 46.5t46.5 16.5q26 0 44.5 -16.5t18.5 -46.5v-72 q75 -11 141.5 -47t106.5 -92l-2 88q0 29 18 43t44 14t44.5 -14t18.5 -43v-299q0 -28 -14 -48t-43 -20q-24 0 -41 16t-17 40q0 84 -46 142.5t-118 84.5t-161 26q-74 0 -141.5 -30.5t-112.5 -91t-45 -138.5q0 -53 22 -96t47.5 -68t81 -50t85 -34.5t96.5 -28.5q26 -7 38 -11 q89 -22 159 -53t131 -79.5t94.5 -121.5t33.5 -166q0 -159 -118 -274.5t-281 -139.5v-74q0 -29 -19.5 -46t-44.5 -17q-26 0 -45.5 17t-19.5 46v74q-155 22 -287 162l2 -109q0 -29 -18.5 -43t-44.5 -14t-44 14t-18 43z" />
<glyph unicode="%" horiz-adv-x="1148" d="M104 1255q0 99 70 168q69 71 168 71t168 -71q70 -69 70 -168t-70 -168q-69 -71 -168 -71t-168 71q-70 69 -70 168zM117.5 44q-7.5 23 5.5 52l792 1368q14 26 39.5 31.5t46.5 -8.5q23 -13 31 -36t-6 -50l-790 -1370q-14 -26 -41 -31.5t-48 8.5q-22 13 -29.5 36z M232 1255.5q0 -45.5 32 -77.5t78 -32t78 32t32 77.5t-32 77.5t-78 32t-78 -32t-32 -77.5zM570 240q0 99 69 168q71 70 170 70t168 -70q69 -69 69 -168t-69 -168t-168 -69t-170 69q-69 69 -69 168zM697 239.5q0 -45.5 32 -77.5q34 -32 80 -32t78 32t32 77.5t-32 77.5 q-32 34 -78 34t-80 -34q-32 -32 -32 -77.5z" />
<glyph unicode="&#x26;" horiz-adv-x="1466" d="M133 375q0 75 23 140.5t68 119.5t93.5 95t116.5 85q-89 91 -134.5 168.5t-45.5 177.5q0 134 97.5 237t230.5 103q139 0 234 -90t95 -244q0 -48 -16.5 -92.5t-41 -78.5t-63.5 -68.5t-73 -59t-79 -55.5q-16 -11 -24 -16l353 -410q32 66 44.5 137.5t10.5 118.5h-49 q-30 0 -46 15.5t-16 41.5t16 43t46 17h196q31 0 47.5 -17t16.5 -43t-16.5 -41.5t-47.5 -15.5h-41q-2 -96 -17.5 -176t-63.5 -176l137 -162h84q40 0 56 -32t0 -64.5t-56 -32.5h-82q-56 0 -96 47l-121 141q-74 -95 -181 -141.5t-219 -46.5q-62 0 -123 14t-118 44.5t-100 73.5 t-69 106t-26 137zM256 375q0 -103 90 -177.5t223 -74.5q57 0 110 10.5t116 47.5t102 98l-381 454q-60 -37 -101 -68.5t-80.5 -75t-59 -97t-19.5 -117.5zM377 1161q0 -41 16.5 -84t39.5 -76t46 -60t39 -41l17 -15q10 5 27 14.5t61 40t77 62t60.5 77t27.5 88.5 q0 108 -60.5 159.5t-145.5 51.5q-28 0 -61 -12.5t-66.5 -36.5t-55.5 -68t-22 -100z" />
<glyph unicode="'" horiz-adv-x="395" d="M143 1448q0 26 16 39.5t40 13.5q22 0 37.5 -13.5t15.5 -39.5l-8 -205q0 -51 -45 -51q-47 0 -47 51z" />
<glyph unicode="(" horiz-adv-x="675" d="M104 756q-1 80 6.5 154t32 160t64.5 158t109.5 139.5t160.5 113.5q28 14 51 14q21 0 33 -13t12 -36q0 -12 -4.5 -22t-16.5 -18.5t-18.5 -12.5t-23.5 -13q-71 -37 -124.5 -100t-82 -127.5t-46 -143.5t-22 -136t-4.5 -117t4.5 -117t22 -136t46 -144t82 -128t124.5 -100 q45 -23 55 -38q8 -12 8 -27q0 -23 -12.5 -36.5t-32.5 -13.5q-21 0 -51 15q-91 46 -160.5 113.5t-109.5 139.5t-64.5 158t-32 160t-6.5 154z" />
<glyph unicode=")" horiz-adv-x="675" d="M102 66q0 5 1 10t2.5 8.5t5 8t5 7t7 6.5t7.5 5.5t8.5 5t8.5 4.5l10 5t9 5q71 37 124.5 100t82 128t45.5 144t21.5 136t4.5 117t-4.5 117t-21.5 136t-45.5 143.5t-82 127.5t-124.5 100q-18 9 -24 12.5t-18.5 12.5t-17 19t-4.5 22q0 23 12 36t33 13q24 0 52 -14 q91 -46 160 -113.5t109 -139.5t64.5 -158t32 -160t6.5 -154q1 -80 -6.5 -154t-32 -160t-64.5 -158t-109 -139.5t-160 -113.5q-30 -15 -52 -15q-20 0 -32.5 13.5t-12.5 36.5z" />
<glyph unicode="*" horiz-adv-x="851" d="M105 1389q-6 26 6 47q11 23 33.5 31.5t50.5 -3.5l165 -82v174q0 29 19.5 45.5t46.5 16.5q26 0 44.5 -16.5t18.5 -45.5v-174l166 82q30 12 52.5 3.5t33.5 -31.5q12 -21 6 -47t-32 -39l-199 -99l158 -174q19 -25 15.5 -48t-23.5 -42q-19 -17 -42.5 -17.5t-45.5 21.5 l-152 168l-152 -168q-22 -22 -45.5 -21.5t-44.5 17.5q-20 18 -22.5 42t16.5 48l156 174l-197 99q-26 13 -32 39z" />
<glyph unicode="+" horiz-adv-x="937" d="M102 729q0 27 16.5 46.5t45.5 19.5h239v239q0 29 19.5 45.5t46.5 16.5q26 0 44.5 -16.5t18.5 -45.5v-239h240q30 0 47 -19.5t17 -46.5t-16.5 -45t-47.5 -18h-240v-240q0 -31 -18 -47.5t-45 -16.5t-46.5 17t-19.5 47v240h-239q-29 0 -45.5 18.5t-16.5 44.5z" />
<glyph unicode="," horiz-adv-x="444" d="M135 70q0 34 23.5 60t62.5 26q43 0 65.5 -27t22.5 -63q0 -28 -14 -66l-64 -160q-12 -34 -42.5 -27.5t-24.5 42.5l41 145q-31 0 -50.5 22.5t-19.5 47.5z" />
<glyph unicode="-" horiz-adv-x="937" d="M102 516q0 27 16.5 46.5t45.5 19.5h608q30 0 47 -19.5t17 -46.5t-16.5 -45t-47.5 -18h-608q-29 0 -45.5 18.5t-16.5 44.5z" />
<glyph unicode="." horiz-adv-x="428" d="M133 80q0 34 24 59t56 25q34 0 58 -25t24 -59q0 -31 -24.5 -55.5t-57.5 -24.5q-32 0 -56 24.5t-24 55.5z" />
<glyph unicode="/" horiz-adv-x="727" d="M44.5 -65q-6.5 19 0.5 42l535 1561q8 23 25.5 34t36.5 8.5t35.5 -12.5t24 -29.5t0.5 -41.5l-534 -1563q-8 -22 -26 -33t-37 -8t-36.5 13t-24 29z" />
<glyph unicode="0" horiz-adv-x="1263" d="M102 750q0 77 6 148t22.5 148t41.5 142.5t66.5 125t95 101t129 66t166.5 24.5q79 0 146 -16t116.5 -42.5t90 -67.5t68 -85t48 -100t32.5 -107.5t19 -114.5t9.5 -113t2.5 -109q0 -78 -4 -142t-17.5 -145t-36 -143.5t-62.5 -126t-94.5 -105.5t-135.5 -68t-182 -26 q-91 0 -166.5 24.5t-129 66t-95 101.5t-66.5 125t-41.5 142.5t-22.5 148.5t-6 148zM229 750q0 -62 3.5 -117t14 -120.5t28 -119t48 -105.5t71.5 -87t101 -56.5t134 -21.5q63 0 116 14t92 37t70 59t51 72t35 85t22.5 90t12 94.5t5.5 90t1 85.5q0 64 -2 111t-10.5 117 t-24 120.5t-46 106t-72 90.5t-105.5 58t-145 23q-74 0 -134 -21.5t-101 -56.5t-71.5 -87t-48 -105t-28 -118.5t-14 -120.5t-3.5 -117z" />
<glyph unicode="1" horiz-adv-x="849" d="M133 1227q0 25 21 43l252 198q41 33 69 33q26 0 43 -16t17 -45v-1311h118q40 0 56 -32t0 -64.5t-56 -32.5h-366q-40 0 -56 32t0 64.5t56 32.5h119v1180l-156 -121q-36 -25 -53 -25q-27 0 -45.5 18.5t-18.5 45.5z" />
<glyph unicode="2" horiz-adv-x="1177" d="M133 66q0 24 27 59l491 543q37 41 60 67t58.5 74.5t55.5 90t36 97t16 109.5q0 115 -91.5 190.5t-207.5 75.5q-75 0 -154 -27t-127 -67q-33 -26 -66.5 -10t-36 50t30.5 66q63 50 164.5 83.5t181.5 33.5q79 0 156 -27t139 -75.5t100 -125t38 -167.5q0 -49 -8 -96.5t-19 -84 t-34 -79t-39 -69t-49 -68t-50.5 -61.5t-54.5 -62l-412 -457h565v66q0 29 20.5 45.5t45 16.5t45 -16.5t20.5 -45.5v-129q0 -28 -18 -47t-45 -19h-776q-29 0 -45.5 19.5t-16.5 46.5z" />
<glyph unicode="3" horiz-adv-x="1236" d="M121 428q-3 29 13 47.5t44 18.5h6.5t15 -3t18.5 -8t15.5 -17.5t8.5 -29.5q7 -88 64 -160t139.5 -110.5t170.5 -38.5q93 0 179 42.5t141 123.5t51 178q-2 81 -54.5 144t-126.5 91.5t-147 22.5q-29 0 -46 19.5t-17 46.5q-5 26 11 45.5t46 19.5q98 8 181 84t79 166 q-5 117 -91 192.5t-224 69.5q-74 -3 -152 -34t-122 -72q-33 -29 -68 -15t-39 48t29 67q58 54 160 93t180 42q198 6 322.5 -103.5t133.5 -279.5q4 -111 -59.5 -193.5t-151.5 -117.5q59 -13 108 -41.5t80 -63t52.5 -75.5t30.5 -77.5t10 -70.5q6 -130 -61 -241t-185 -174.5 t-258 -63.5q-101 0 -192.5 38t-154.5 98.5t-101 137.5t-39 154z" />
<glyph unicode="4" horiz-adv-x="1325" d="M117 336q-8 29 18 76l653 1058q17 35 56 31h90q28 0 46.5 -17.5t18.5 -45.5v-1016h129q29 0 46.5 -19.5t17.5 -44.5q0 -26 -17.5 -45.5t-46.5 -19.5h-129v-164h99q29 0 45.5 -20t16.5 -44.5t-16.5 -44.5t-45.5 -20h-307q-29 0 -45.5 20t-16.5 44.5t16.5 44.5t45.5 20h77 v164h-692q-23 0 -38.5 12t-20.5 31zM287 422h581v741l4 207l-112 -192z" />
<glyph unicode="5" horiz-adv-x="1224" d="M135.5 258.5q2.5 23.5 24.5 40.5q29 14 48.5 11.5t29.5 -12.5l10 -11q53 -75 141 -120t178 -42q154 3 274 120t120 267q0 64 -21.5 121.5t-58.5 100t-83.5 74t-98 48.5t-101.5 18q-132 3 -236 -73q-4 -3 -19 -16t-25.5 -19.5t-27 -14t-35.5 -6t-40 10.5q-25 9 -37 29 t-11 35l1 16l65 579q7 34 29 60t57 26h582q29 0 45.5 -18.5t16.5 -44.5v-107q0 -40 -32.5 -56t-64.5 0t-32 56v41h-478l-55 -487q4 5 12 13t35.5 28.5t58.5 36t80.5 28.5t102.5 13q135 0 250 -62.5t183.5 -176t68.5 -253.5q0 -101 -44.5 -195.5t-117.5 -163t-170 -110.5 t-197 -43q-123 0 -235.5 56t-182.5 155q-4 5 -8 14.5t-1.5 33z" />
<glyph unicode="6" horiz-adv-x="1181" d="M102 481q0 101 37 191q18 45 44 94.5t59.5 110t50.5 92.5l260 497q14 26 39.5 32.5t46.5 -5.5q24 -13 33 -35t-4 -51l-244 -471q77 39 174 39q131 -2 242 -70t175 -181.5t64 -244.5q0 -97 -30.5 -179t-80.5 -136t-115 -92t-132 -55t-133 -17q-128 0 -239.5 65.5 t-178 176.5t-68.5 239zM229 485q0 -141 109 -249.5t254 -108.5q60 0 120 20t114.5 60t89 110.5t34.5 161.5q0 150 -104.5 259.5t-253.5 109.5t-256 -107t-107 -256z" />
<glyph unicode="7" horiz-adv-x="1126" d="M102 1329v105q0 27 17.5 46t44.5 19h780q36 5 63 -24t11 -68l-606 -1372q-16 -36 -51.5 -36.5t-58.5 28.5t-7 65l563 1278h-627v-41q0 -40 -32.5 -56t-64.5 0t-32 56z" />
<glyph unicode="8" horiz-adv-x="1171" d="M102 444q0 76 28.5 142.5t69 107.5t81.5 71t69 42l29 12q-195 97 -195 297q0 101 58.5 191t150.5 142t191 52q104 0 196.5 -49.5t148.5 -135t56 -183.5q0 -95 -57 -184.5t-135 -129.5q11 -4 29.5 -13t66.5 -42.5t84 -73t66 -106.5t30 -142q0 -107 -41 -193.5t-109 -140 t-153 -82t-178 -28.5t-179 28.5t-155 82.5t-110.5 141t-41.5 194zM229 444q0 -99 54 -173t133.5 -109t169.5 -35q88 0 167.5 35t134 109t54.5 173q0 96 -55 168.5t-135.5 107t-169.5 34.5q-135 0 -244 -88.5t-109 -221.5zM313 1116q0 -101 82.5 -172.5t186.5 -71.5 q112 0 194 75t82 186q0 100 -83.5 170.5t-188.5 70.5q-108 0 -190.5 -78t-82.5 -180z" />
<glyph unicode="9" horiz-adv-x="1181" d="M109 1022q0 97 30.5 179t80.5 136t115 92t132 55t133 17q128 0 239 -65.5t177.5 -176.5t68.5 -239q0 -103 -36 -191q-18 -45 -44 -94.5t-59.5 -110t-50.5 -92.5l-260 -497q-14 -26 -39.5 -32.5t-46.5 5.5q-24 13 -33 35t4 51l244 471q-77 -39 -174 -39q-131 2 -242 70 t-175 181.5t-64 244.5zM238 1022q0 -150 104.5 -259.5t253.5 -109.5t256 107q106 106 106 256q0 141 -108.5 249.5t-253.5 108.5q-60 0 -120 -20t-114.5 -60t-89 -110.5t-34.5 -161.5z" />
<glyph unicode=":" horiz-adv-x="344" d="M90 80q0 34 24 59t56 25q34 0 58 -25t24 -59q0 -31 -24.5 -55.5t-57.5 -24.5q-32 0 -56 24.5t-24 55.5zM90 614q0 34 24 59t56 25q34 0 58 -25t24 -59q0 -31 -24.5 -55t-57.5 -24q-32 0 -56 24t-24 55z" />
<glyph unicode=";" horiz-adv-x="393" d="M135 70q0 34 23.5 60t62.5 26q43 0 65.5 -27t22.5 -63q0 -28 -14 -66l-64 -160q-12 -34 -42.5 -27.5t-24.5 42.5l41 145q-31 0 -50.5 22.5t-19.5 47.5zM141 614q0 34 24 59t56 25q34 0 58 -25t24 -59q0 -31 -24.5 -55t-57.5 -24q-32 0 -56 24t-24 55z" />
<glyph unicode="&#x3c;" horiz-adv-x="831" d="M102 731q0 38 37 57l492 285q28 14 51.5 6.5t36.5 -30.5q12 -21 7 -46.5t-30 -41.5l-399 -230l399 -229q25 -14 30 -40.5t-7 -47.5q-13 -23 -36.5 -31t-51.5 6l-496 287q-33 18 -33 55z" />
<glyph unicode="=" horiz-adv-x="937" d="M102 590q0 27 16.5 46t45.5 19h608q30 0 47 -19t17 -46q0 -26 -17 -45t-47 -19h-608q-29 0 -45.5 19.5t-16.5 44.5zM102 868q0 27 16.5 46.5t45.5 19.5h608q30 0 47 -19.5t17 -46.5t-17 -46t-47 -19h-608q-29 0 -45.5 19t-16.5 46z" />
<glyph unicode="&#x3e;" horiz-adv-x="831" d="M104 461.5q5 26.5 31 40.5l397 229l-397 230q-26 16 -31 41.5t9 46.5q13 23 36 30.5t50 -6.5l493 -285q38 -23 35 -57q3 -34 -31 -55l-497 -287q-27 -14 -50 -6t-36 31q-14 21 -9 47.5z" />
<glyph unicode="?" horiz-adv-x="1073" d="M122 1192q-12 24 1 51q50 120 171 189t263 69q177 0 303.5 -123t126.5 -297q0 -70 -22.5 -128.5t-58 -101t-79 -81t-86.5 -76t-78.5 -77.5t-58 -94.5t-22.5 -119.5q0 -39 -29 -55t-57.5 -0.5t-28.5 55.5q0 75 21.5 140t56.5 111.5t76.5 88.5t83.5 79.5t77 75.5t56.5 85.5 t21.5 101.5q0 123 -90 205t-215 82q-101 0 -187.5 -44.5t-121.5 -123.5q-23 -51 -71 -47q-38 3 -53 35zM449 59v35q0 29 21 45.5t48 16.5t48.5 -16.5t21.5 -45.5v-35q0 -29 -21 -44t-49 -15t-48.5 15t-20.5 44z" />
<glyph unicode="@" horiz-adv-x="2318" d="M201 539q0 192 78 370t208.5 307.5t309 206.5t370.5 76q153 -1 297.5 -49t262 -134.5t206.5 -202t138 -259t49 -297.5q0 -65 -11.5 -135.5t-41.5 -147t-73.5 -136.5t-115.5 -99t-160 -39h-153q-20 0 -34.5 14.5t-14.5 34.5v131q-66 -92 -166.5 -141t-219.5 -49 q-148 0 -271.5 73.5t-193 198.5t-69.5 273q0 109 40.5 208.5t110 172.5t166.5 116t205 43q59 0 112.5 -11.5t92.5 -30.5t72 -42t55 -45.5t37.5 -41.5t22.5 -30l6 -12v80q0 22 14.5 36.5t34.5 14.5h108q29 0 45.5 -20t16.5 -43.5t-16.5 -43.5t-45.5 -20h-28v-737h57 q72 0 130.5 45.5t92 113.5t51 137t17.5 126q1 134 -41 259t-119.5 225t-180.5 175.5t-228.5 117t-258.5 42.5q-134 1 -261.5 -42t-230.5 -122t-181.5 -183.5t-120.5 -232.5t-41 -262q1 -163 68.5 -314.5t179 -262.5t264.5 -177.5t319 -66.5q27 0 45.5 -18.5t18.5 -46.5 q0 -26 -19 -45t-45 -19q-158 0 -305.5 50t-265 140t-206 209t-136 264t-47.5 298zM723 537q-3 -171 108.5 -294.5t292.5 -123.5q43 -1 93 11.5t105.5 43.5t100.5 76.5t74 118.5t29 161q0 109 -51 204t-145 154.5t-208 59.5q-165 0 -280.5 -121t-118.5 -290z" />
<glyph unicode="A" horiz-adv-x="1517" d="M92 64.5q0 24.5 16.5 44.5t45.5 20h26l484 1243q-24 5 -37 26t-11.5 44t18 41t44.5 18h162q28 0 44.5 -18t18.5 -41t-11 -44t-38 -26l485 -1243h25q29 0 45.5 -20t16.5 -44.5t-16.5 -44.5t-45.5 -20h-172q-40 0 -56 32q-8 16 -8 32t8 32q16 32 56 33h8l-110 283h-662 l-111 -283h11q29 0 45.5 -20t16.5 -44.5t-16.5 -44.5t-45.5 -20h-174q-29 0 -45.5 20t-16.5 44.5zM479 541h561l-280 721z" />
<glyph unicode="B" horiz-adv-x="1443" d="M184 64.5q0 24.5 16.5 44.5t45.5 20h47v1243h-47q-29 0 -45.5 20t-16.5 44.5t16.5 44.5t45.5 20h569q110 0 206.5 -53.5t155 -147t58.5 -204.5q0 -62 -20.5 -118t-49.5 -91.5t-57.5 -61.5t-49.5 -37l-20 -12q125 -44 206.5 -137t84.5 -221v-14q1 -98 -51 -190 q-56 -98 -153 -156q-94 -58 -200 -58h-7h-672q-29 0 -45.5 20t-16.5 44.5zM422 129h496q119 6 201.5 86t82.5 195q0 113 -84 194q-31 29 -67.5 46t-83.5 24t-77.5 8.5t-86.5 1.5h-381v-555zM422 815h383q133 0 218 81.5t85 199.5q0 116 -89.5 196t-207.5 80h-389v-557z" />
<glyph unicode="C" horiz-adv-x="1509" d="M113 750q0 151 59.5 290t159 240t234 161t278.5 60q110 0 216.5 -42t149.5 -107l-2 90q0 29 18 43t44 14t44.5 -14t18.5 -43v-299q0 -28 -14 -48t-43 -20q-24 0 -40.5 15.5t-16.5 39.5v17q-2 88 -99 157.5t-276 69.5q-161 0 -300.5 -84.5t-221.5 -228.5t-82 -311 q0 -166 80 -311t221 -231q132 -81 284 -81h21q234 0 422 188q19 19 45 20t45 -18t19 -45t-19 -45q-104 -110 -236 -168.5t-280 -58.5q-149 0 -284.5 60t-232.5 161t-154.5 239.5t-57.5 289.5z" />
<glyph unicode="D" horiz-adv-x="1601" d="M171 1404q-8 16 -8 32t8 32q16 32 56 33h475q150 0 290 -57t247 -162q216 -232 219 -532q0 -149 -57 -287t-162 -244q-106 -106 -246.5 -162.5t-294.5 -56.5h-469q-40 0 -56 32q-8 16 -8 32t8 32q16 32 56 33h31v1243h-33q-40 0 -56 32zM389 129h316q125 0 240 46.5 t204 133.5q87 88 134.5 203t47.5 238q-3 251 -182 442q-87 85 -201 132.5t-235 47.5h-324v-1243z" />
<glyph unicode="E" horiz-adv-x="1419" d="M192 32q-8 16 -8 32t8 32q16 32 56 33h26v1243h-26q-40 0 -56 32q-8 16 -8 32t8 32q16 32 56 33h934q30 0 46 -20q15 -18 15 -41v-6v-91q0 -29 -20 -45.5t-44.5 -16.5t-44.5 16.5t-20 45.5v29h-711v-557h605q29 0 45.5 -20.5t16.5 -45t-16.5 -45t-45.5 -20.5h-605v-555 h711v29q0 29 20 45.5t44.5 16.5t44.5 -16.5t20 -45.5v-92q0 -27 -16 -46.5t-45 -19.5h-934q-40 0 -56 32z" />
<glyph unicode="F" horiz-adv-x="1286" d="M192 1404q-8 16 -8 32t8 32q16 32 56 33h913q31 0 47 -20q15 -18 15 -41v-6v-91q0 -29 -20 -45.5t-44.5 -16.5t-44.5 16.5t-20 45.5v29h-691v-557h584q29 0 45.5 -20.5t16.5 -45t-16.5 -45t-45.5 -20.5h-584v-557h17q40 0 56 -32q8 -16 8 -32q0 -17 -8 -33 q-16 -32 -56 -32h-162q-40 0 -56 32q-8 16 -8 32t8 32q16 32 56 33h16v1245h-26q-40 0 -56 32z" />
<glyph unicode="G" horiz-adv-x="1589" d="M133 752q0 158 59.5 298t160.5 238.5t239.5 155.5t292.5 57q109 0 210.5 -41t145.5 -106l-2 90q0 29 17.5 43t43.5 14t45 -14t19 -43v-299q0 -28 -14 -48t-43 -20q-24 0 -41 16t-17 40v16q-1 41 -23 79.5t-64.5 72.5t-115.5 54.5t-165 20.5q-122 0 -235 -47.5t-197 -129 t-135 -197t-52 -244.5v-8q0 -167 80 -310q82 -145 221 -229t301 -86q93 0 196 29.5t175 81.5v342h-397q-24 0 -43 19t-19 42q-2 27 15 47.5t47 20.5h462q27 0 45.5 -17.5t18.5 -46.5v-588q0 -29 -19 -43t-45 -14q-25 0 -41 14t-16 43l-2 68q-150 -121 -360 -125h-10 q-143 0 -275 56q-137 57 -239 157t-163 241.5t-61 299.5z" />
<glyph unicode="H" horiz-adv-x="1665" d="M184 64.5q0 24.5 16.5 44.5t45.5 20h37v1243h-37q-29 0 -45.5 20t-16.5 44.5t16.5 44.5t45.5 20h203q40 -1 56 -33q8 -16 8 -32t-8 -32q-16 -32 -56 -32h-37v-557h839v557h-37q-29 0 -45.5 20t-16.5 44.5t16.5 44.5t45.5 20h203q40 -1 56 -33q8 -16 8 -32t-8 -32 q-16 -32 -56 -32h-37v-1243h37q40 0 56 -32q8 -16 8 -32q0 -17 -8 -33q-16 -32 -56 -32h-203q-29 0 -45.5 20t-16.5 44.5t16.5 44.5t45.5 20h37v557h-839v-557h37q40 0 56 -32q8 -16 8 -32q0 -17 -8 -33q-16 -32 -56 -32h-203q-29 0 -45.5 20t-16.5 44.5z" />
<glyph unicode="I" d="M171 32q-8 16 -8 32t8 32q16 32 56 33h17v1243h-17q-40 0 -56 32q-8 16 -8 32t8 32q16 32 56 33h162q40 -1 56 -33q8 -16 8 -32t-8 -32q-16 -32 -56 -32h-16v-1243h16q40 0 56 -32q8 -16 8 -32q0 -17 -8 -33q-16 -32 -56 -32h-162q-40 0 -56 32z" />
<glyph unicode="J" horiz-adv-x="1191" d="M128 299q10 24 34 35q25 11 50.5 1.5t35.5 -34.5q77 -178 313 -178q78 0 145 48.5t104.5 123.5t37.5 154v921h-27q-29 0 -45.5 20.5t-16.5 45t16.5 45t45.5 20.5h178q40 0 56 -33q8 -16 8 -32t-8 -33q-16 -33 -56 -33h-20v-926q0 -113 -56 -216.5t-154.5 -168 t-211.5 -65.5q-95 0 -169 21t-123 59.5t-79.5 80t-54.5 95.5q-7 14 -7 28q0 10 4 21z" />
<glyph unicode="K" horiz-adv-x="1501" d="M184 64.5q0 24.5 16.5 44.5t45.5 20h16v1241h-16q-29 0 -45.5 20.5t-16.5 45t16.5 45t45.5 20.5h164q29 0 45.5 -20.5t16.5 -45t-16.5 -45t-45.5 -20.5h-17v-717l611 725q-25 12 -31.5 42t10 55.5t51.5 25.5h162q40 -1 56 -33q8 -16 8 -32t-8 -33q-16 -33 -56 -33h-37 l-397 -467l-17 -18l545 -756h35q40 0 56 -32q8 -16 8 -32q0 -17 -8 -33q-16 -32 -56 -32h-162q-35 0 -51.5 26.5t-8 57t37.5 41.5l-479 657l-37 -43l-232 -270v-340h17q29 0 45.5 -20t16.5 -44.5t-16.5 -44.5t-45.5 -20h-164q-29 0 -45.5 20t-16.5 44.5z" />
<glyph unicode="L" horiz-adv-x="1323" d="M196 1436.5q0 24.5 16.5 44.5t45.5 20h164q29 0 45.5 -20t16.5 -44.5t-16.5 -44.5t-45.5 -20h-16v-1243h665v29q0 29 20 45.5t44.5 16.5t44.5 -16.5t20 -45.5v-92q0 -27 -16 -46.5t-45 -19.5h-891q-36 0 -50 32q-7 16 -7.5 32t7.5 32q14 32 50 33h28v1243h-18 q-29 0 -45.5 20t-16.5 44.5z" />
<glyph unicode="M" horiz-adv-x="1871" d="M184 64.5q0 24.5 16.5 44.5t45.5 20h37v1241h-37q-29 0 -45.5 20.5t-16.5 45t16.5 45t45.5 20.5h71q16 0 31.5 -7t23.5 -14l7 -7q156 -224 284.5 -414t198 -295t90.5 -135l525 831q35 41 82 41h65q40 -1 56 -33q8 -16 8 -32t-8 -33q-16 -33 -56 -33h-37v-1241h37 q40 0 56 -32q8 -16 8 -32q0 -17 -8 -33q-16 -32 -56 -32h-203q-40 0 -56 32q-8 16 -8 32t8 32q16 32 56 33h37v1067l-459 -702q-16 -23 -45 -23q-33 0 -47 23l-495 702v-1067h39q29 0 45.5 -20t16.5 -44.5t-16.5 -44.5t-45.5 -20h-205q-29 0 -45.5 20t-16.5 44.5z" />
<glyph unicode="N" horiz-adv-x="1597" d="M184 1436.5q0 24.5 16.5 44.5t45.5 20h92q34 0 57 -33l682 -1013l144 -248l-17 244v921h-16q-29 0 -45.5 20t-16.5 44.5t16.5 44.5t45.5 20h162q40 -1 56 -33q8 -16 8 -32t-8 -32q-16 -32 -56 -32h-17v-1313q0 -59 -78 -59q-44 0 -61 33l-791 1188v-1092h17 q29 0 45.5 -20t16.5 -44.5t-16.5 -44.5t-45.5 -20h-164q-29 0 -45.5 20t-16.5 44.5t16.5 44.5t45.5 20h16v1243h-26q-29 0 -45.5 20t-16.5 44.5z" />
<glyph unicode="O" horiz-adv-x="1757" d="M115 741q0 159 63.5 303.5t168 247.5t245.5 163.5t291 60.5q156 0 298 -63.5t243 -168.5t161 -244.5t60 -287.5q0 -156 -62.5 -298.5t-167 -244.5t-245 -162.5t-291.5 -60.5q-203 0 -379 102.5t-280.5 277t-104.5 375.5zM244 743q0 -125 52 -241t138.5 -200t204 -134.5 t242.5 -50.5q166 0 312 83.5t234.5 230t88.5 319.5q0 167 -85 314t-232.5 236t-319.5 89q-124 0 -240.5 -51.5t-203 -137.5t-139 -206.5t-52.5 -250.5z" />
<glyph unicode="P" horiz-adv-x="1353" d="M184 64.5q0 24.5 16.5 44.5t45.5 20h37v1243h-27q-29 0 -45.5 20t-16.5 44.5t16.5 44.5t45.5 20h561q89 0 169 -35t136.5 -94t91 -138t35.5 -165v-8q1 -175 -123 -299q-126 -127 -309 -127h-405v-506h37q40 0 56 -32q8 -16 8 -32q0 -17 -8 -33q-16 -32 -56 -32h-203 q-29 0 -45.5 20t-16.5 44.5zM412 764h405q129 0 217 87t88 216q0 125 -89 215t-216 90h-405v-608z" />
<glyph unicode="Q" horiz-adv-x="1724" d="M113 748q0 153 61 293t162.5 240t239 159t284.5 59q153 -4 292 -64.5t240 -159t160.5 -234.5t59.5 -285q0 -133 -46.5 -258t-131.5 -226l161 -166q4 -5 9 -13t5 -31t-18 -42q-19 -19 -41 -20h-4q-18 0 -29 8l-12 8l-164 164q-98 -84 -219.5 -131.5t-255.5 -48.5h-5 q-147 0 -285 59q-139 60 -240 161t-162 240t-61 288zM240 750q0 -166 85.5 -310t230.5 -228q141 -83 302 -83h8q121 2 234.5 47.5t202.5 132.5q89 89 134.5 203.5t45.5 237.5q0 131 -52.5 248t-138.5 198t-200 128.5t-234 47.5q-169 0 -312 -87t-224.5 -230t-81.5 -305z" />
<glyph unicode="R" horiz-adv-x="1458" d="M184 64.5q0 24.5 16.5 44.5t45.5 20h37v1243h-27q-40 0 -56 32q-8 16 -8 32t8 32q16 32 56 33h520q89 0 169 -35t136.5 -94t91 -138t35.5 -165v-10q0 -139 -83 -249q-86 -114 -226 -157q-3 -1 -8 -2t-8 -2l315 -520h64q40 0 56 -32q8 -16 8 -32q0 -17 -8 -33 q-16 -32 -56 -32h-103q-47 0 -76 47l-340 588h-331v-506h37q40 0 56 -32q8 -16 8 -32q0 -17 -8 -33q-16 -32 -56 -32h-203q-29 0 -45.5 20t-16.5 44.5zM412 764h364q128 0 218 89q87 86 87 208v8q-3 125 -91 214t-214 89h-364v-608z" />
<glyph unicode="S" horiz-adv-x="1208" d="M133 416q0 3 0.5 7t4 15t9.5 19t18 15t28 7q62 0 65 -59v-8q1 -137 95 -212q92 -73 230 -73h7q86 0 166 33t135 101.5t55 156.5q0 228 -319 303q-232 54 -348.5 150.5t-116.5 254.5q0 109 63.5 196.5t159.5 133t201 45.5q95 0 181 -38t136 -107l-2 88q0 29 18 43t44 14 t44.5 -14t18.5 -43v-299q0 -28 -14 -48t-43 -20q-24 0 -41 16t-17 40q0 84 -46 142.5t-118 84.5t-161 26q-74 0 -141.5 -30.5t-112.5 -91t-45 -138.5q0 -53 22 -96t47.5 -68t81 -50t85 -34.5t96.5 -28.5q26 -7 38 -11q89 -22 159 -53t131 -79.5t94.5 -121.5t33.5 -166 q0 -89 -40.5 -168t-106 -133t-149 -85.5t-169.5 -31.5q-192 0 -350 166l2 -109q0 -29 -18.5 -43t-44.5 -14t-44 14t-18 43z" />
<glyph unicode="T" horiz-adv-x="1374" d="M82 1343v93q0 28 17 46.5t46 18.5h1086q29 0 45 -19t16 -46v-93q0 -29 -20 -45.5t-44.5 -16.5t-44.5 16.5t-20 45.5v29h-411v-1243h36q40 0 56 -32q8 -16 8 -32q0 -17 -8 -33q-16 -32 -56 -32h-202q-29 0 -45.5 20t-16.5 44.5t16.5 44.5t45.5 20h37v1243h-412v-29 q0 -29 -20 -45.5t-44.5 -16.5t-44.5 16.5t-20 45.5z" />
<glyph unicode="U" horiz-adv-x="1466" d="M133 1436.5q0 24.5 16.5 44.5t45.5 20h161q40 -1 56 -33q8 -16 8 -32t-8 -32q-16 -32 -56 -32h-16v-864q0 -158 115 -269.5t272 -111.5t272 111.5t115 269.5v864h-16q-40 0 -56 32q-8 16 -8 32t8 32q16 32 56 33h162q29 0 45.5 -20t16.5 -44.5t-16.5 -44.5t-45.5 -20h-17 v-862q0 -139 -71.5 -257t-190 -185.5t-254.5 -67.5t-254.5 67.5t-190 185.5t-71.5 257v862h-16q-29 0 -45.5 20t-16.5 44.5z" />
<glyph unicode="V" horiz-adv-x="1554" d="M110 1404q-8 16 -8 32t8 32q16 32 56 33h162q40 -1 56 -33q8 -16 8 -32t-8 -32q-16 -32 -56 -32h-11l461 -1136l459 1136h-10q-40 0 -56 32q-8 16 -8 32t8 32q16 32 56 33h162q40 -1 56 -33q8 -16 8 -32t-8 -32q-16 -32 -56 -32h-11l-536 -1323q-9 -30 -39 -43 q-13 -6 -27 -6q-12 0 -22 4q-26 8 -35 35l-543 1333h-10q-40 0 -56 32z" />
<glyph unicode="W" horiz-adv-x="2115" d="M71 1435.5q0 24.5 16.5 45t45.5 20.5h205q29 0 45.5 -20.5t16.5 -45t-16.5 -45t-45.5 -20.5h-35l252 -987l43 -203l57 203l359 1071q13 47 61 47q43 0 58 -47l335 -1073l52 -201l43 203l252 987h-35q-40 0 -56 33q-8 16 -8 32.5t8 32.5q16 32 56 33h202q29 0 45.5 -20.5 t16.5 -45t-16.5 -45t-45.5 -20.5h-34l-330 -1286l-3 -9t-10.5 -20.5t-19 -25.5t-28 -20t-37.5 -9q-36 0 -62 21.5t-34 42.5l-7 22l-348 1143l-367 -1145l-3 -9t-10 -21t-18.5 -26t-30 -20.5t-42.5 -9.5q-33 0 -57.5 21t-32.5 42l-8 21l-332 1288h-35q-29 0 -45.5 20.5 t-16.5 45z" />
<glyph unicode="X" horiz-adv-x="1439" d="M90 64.5q0 24.5 16.5 44.5t45.5 20h36l453 621l-451 622h-38q-29 0 -45.5 20t-16.5 44.5t16.5 44.5t45.5 20h182q40 0 56 -31q9 -17 8 -34q0 -14 -6 -29q-14 -32 -50 -35l377 -502l375 502q-34 3 -48 35q-6 15 -7 29q0 17 9 34q16 31 54 31h182q40 -1 56 -33q8 -16 8 -32 t-8 -32q-16 -32 -56 -32h-37l-450 -618l450 -625h37q40 0 56 -32q8 -16 8 -32q0 -17 -8 -33q-16 -32 -56 -32h-182q-38 0 -54 31q-9 17 -10 34q0 14 6 29q14 32 50 35q-18 29 -40.5 63t-52 76t-53 75.5t-60.5 84t-56 77t-58.5 80t-50.5 68.5l-381 -524q36 -3 50 -35 q6 -15 6 -29q0 -17 -8 -34q-16 -31 -56 -31h-182q-29 0 -45.5 20t-16.5 44.5z" />
<glyph unicode="Y" horiz-adv-x="1488" d="M100 1402q-8 16 -8 32t8 32q16 33 56 33h161q28 0 45 -19.5t17.5 -43t-14 -44t-41.5 -22.5l421 -676l420 676q-36 3 -50 35q-7 15 -7 30q0 16 9 33q16 31 54 31h164q29 0 45.5 -20t16.5 -44.5t-16.5 -44.5t-45.5 -20h-16l-510 -797v-444h16q40 0 56 -32q8 -16 8 -32 t-8 -33q-16 -32 -56 -32h-161q-29 0 -45.5 20t-16.5 44.5t16.5 44.5t45.5 20h16v444l-510 797h-14q-40 0 -56 32z" />
<glyph unicode="Z" horiz-adv-x="1339" d="M113 1341v93q0 26 17 45.5t46 19.5h967q31 1 50 -25q13 -18 13 -38q0 -8 -2 -17q-4 -16 -20 -39q-16 -24 -114.5 -157.5t-291.5 -410t-467 -683.5h764v25q0 29 20 45.5t44.5 16.5t44.5 -16.5t20 -45.5v-84v-6q0 -26 -16 -44q-18 -20 -45 -20h-955q-40 0 -58 30 q-8 13 -8 28q0 19 13 42l885 1270h-776v-29q0 -29 -20.5 -45.5t-45 -16.5t-45 16.5t-20.5 45.5z" />
<glyph unicode="[" horiz-adv-x="493" d="M123 -221v1659q0 29 19.5 46t45.5 17h162q29 0 45.5 -19t16.5 -46t-16.5 -46.5t-45.5 -19.5h-98v-1526h98q29 0 45.5 -18.5t16.5 -44.5q0 -27 -16.5 -46.5t-45.5 -19.5h-162q-26 0 -45.5 17.5t-19.5 46.5z" />
<glyph unicode="\" horiz-adv-x="727" d="M45 1497q-7 22 0.5 41.5t24.5 29.5t36 12.5t36.5 -8.5t25.5 -34l534 -1561q13 -37 -12.5 -63t-61 -21.5t-48.5 41.5z" />
<glyph unicode="]" horiz-adv-x="493" d="M82 -219q0 27 16 45t45 18h99v1526h-99q-29 0 -45 19.5t-16 46.5t16 46t45 19h162q27 0 46.5 -17t19.5 -46v-1659q0 -29 -20 -46.5t-46 -17.5h-162q-29 0 -45 19.5t-16 46.5z" />
<glyph unicode="`" horiz-adv-x="487" d="M88 1438q0 30 21 50.5t51 20.5q27 0 47 -20q40 -37 155 -152q23 -22 18 -48t-27.5 -34.5t-49.5 2.5q-93 59 -176 121q-39 31 -39 60z" />
<glyph unicode="a" horiz-adv-x="1374" d="M113 535q0 109 40.5 208.5t110 172.5t166.5 116t205 43q80 0 150.5 -22t114 -53.5t75 -62.5t44.5 -53l13 -22v162q0 22 14.5 36.5t34.5 14.5h109q29 0 45.5 -20t16.5 -44.5t-16.5 -44.5t-45.5 -20h-29v-817h29q29 0 45.5 -20t16.5 -44.5t-16.5 -44.5t-45.5 -20h-109 q-20 0 -34.5 14.5t-14.5 34.5v131q-66 -92 -166 -141t-219 -49q-148 0 -271.5 73.5t-193 198.5t-69.5 273zM240 537q0 -82 28 -157.5t78.5 -133.5t127 -92.5t167.5 -34.5h6q40 -1 87 11q50 12 105.5 43.5t100 77t73.5 118.5t29 161q0 109 -50.5 203.5t-144.5 153.5t-208 59 q-166 0 -282.5 -120.5t-116.5 -288.5z" />
<glyph unicode="b" horiz-adv-x="1386" d="M133 64.5q0 24.5 16.5 44.5t45.5 20h28v1305h-28q-29 0 -45.5 20t-16.5 43.5t16.5 43.5t45.5 20h108q20 0 34.5 -15t14.5 -37v-647q5 9 14 23t43.5 51t76 65t113 51t151.5 23q108 0 205 -43t166.5 -116t110 -172.5t40.5 -208.5q0 -148 -70 -273t-193 -198.5t-272 -73.5 q-119 0 -219 49t-166 141v-131q0 -20 -14.5 -34.5t-34.5 -14.5h-108q-29 0 -45.5 20t-16.5 44.5zM352 530q0 -88 28 -161t71 -118.5t97 -76.5q54 -32 103 -44q45 -12 86 -11h6q121 0 215 59t142 154q46 91 45 196v9q-3 169 -118.5 290t-281.5 121q-114 0 -205.5 -59.5 t-139.5 -154.5t-48 -204z" />
<glyph unicode="c" horiz-adv-x="1212" d="M111 506q0 109 31 203.5t83.5 160.5t121 113t144.5 69.5t154 22.5q102 0 193 -37t129 -104v51q0 57 55 57q25 0 41 -14t16 -43v-221q0 -28 -17 -41.5t-42 -13.5q-41 0 -55 65q-18 81 -112 126.5t-206 45.5q-60 0 -117 -15t-110 -49.5t-93 -84.5t-63.5 -125t-23.5 -166 q0 -103 59 -193.5t152.5 -142t195.5 -51.5q93 0 178 31t136 96q15 21 41.5 24t46.5 -12q23 -17 26 -43.5t-14 -48.5q-64 -84 -182.5 -130t-235.5 -46q-103 0 -200.5 41t-170.5 110t-117 165t-44 200z" />
<glyph unicode="d" horiz-adv-x="1386" d="M113 535q0 109 40.5 208.5t110 172.5t166.5 116t205 43q80 0 150.5 -22t114 -53.5t75 -62.5t44.5 -53l13 -22v572h-28q-29 0 -45.5 20t-16.5 43.5t16.5 43.5t45.5 20h108q20 0 34.5 -15t14.5 -37v-1380h29q29 0 45.5 -20t16.5 -44.5t-16.5 -44.5t-45.5 -20h-109 q-20 0 -34.5 14.5t-14.5 34.5v131q-66 -92 -166 -141t-219 -49q-148 0 -271.5 73.5t-193 198.5t-69.5 273zM240 537v-9q0 -166 108 -286q112 -124 293 -123h6q40 -1 86 11q49 12 103 43.5t97 77t71 118.5t28 161q0 109 -48 204t-139.5 154.5t-205.5 59.5q-165 0 -280.5 -121 t-118.5 -290z" />
<glyph unicode="e" horiz-adv-x="1212" d="M113 535q0 109 41 210t110.5 176t167.5 119.5t205 44.5q141 0 251 -73.5t169 -195.5t63 -271q0 -31 -16 -54.5t-47 -23.5h-815q25 -154 142 -251t275 -97q60 0 131.5 13.5t118.5 37.5q25 12 44 12q30 0 46 -30q12 -21 5 -48t-33 -41q-59 -34 -147 -53.5t-162 -19.5 q-155 0 -281.5 73t-197 198t-70.5 274zM242 596h745q-26 161 -116.5 260.5t-235.5 99.5q-146 0 -257.5 -105t-135.5 -255z" />
<glyph unicode="f" horiz-adv-x="817" d="M133 1009.5q0 24.5 16.5 45t45.5 20.5h96v139q0 157 78 252t231 95q64 0 125 -21q36 -12 40 -48q1 -4 1 -9q0 -30 -22 -52q-18 -18 -40 -18q-11 0 -22 4q-53 17 -92 17q-73 -2 -121.5 -47.5t-48.5 -120.5v-191h190q30 0 47 -19t17 -46t-17 -46.5t-47 -19.5h-141h-8h-41 v-825h139q40 0 56 -29.5t0 -59.5t-56 -30h-346q-40 0 -56 30t0 59.5t56 29.5h78v825h-96q-29 0 -45.5 20.5t-16.5 45z" />
<glyph unicode="g" horiz-adv-x="1435" d="M133 535q0 109 40.5 208.5t110 172.5t166.5 116t205 43q59 0 112.5 -11.5t92.5 -30.5t72 -42t55 -45.5t37.5 -41.5t21.5 -30l7 -12v162q0 22 14.5 36.5t34.5 14.5h108q29 0 45.5 -20t16.5 -43.5t-16.5 -43.5t-45.5 -20h-28v-868q-11 -223 -157.5 -361.5t-379.5 -138.5 q-34 0 -64.5 1.5t-58.5 5.5l-49 7t-45.5 11t-37 11t-36 13t-29 12.5t-29.5 14t-26 12.5q-3 1 -8 4t-17.5 12t-18 19.5t-9.5 28t8 35.5q19 33 51 33q23 0 52 -17q131 -74 323 -74q179 0 286.5 99.5t115.5 267.5v104q-66 -92 -166 -141t-219 -49q-149 0 -272 73.5t-193 198.5 t-70 273zM260 537v-9q0 -105 46 -196q47 -95 141 -154t215 -59h6q41 0 86 11q49 13 103 44t97 76.5t71 118.5t28 161q0 109 -48.5 204t-140 154.5t-205.5 59.5q-165 0 -280.5 -121t-118.5 -290z" />
<glyph unicode="h" horiz-adv-x="1372" d="M133 1495.5q0 24.5 16.5 45t45.5 20.5h127q22 0 36.5 -15t14.5 -37v-610q56 78 153.5 127t208.5 49h22q95 -1 171 -31q86 -34 140.5 -98.5t83 -151t28.5 -188.5v-477h39q29 0 45.5 -20t16.5 -44.5t-16.5 -44.5t-45.5 -20h-205q-29 0 -45.5 20t-16.5 44.5t16.5 44.5 t45.5 20h37v477q0 340 -316 340q-79 0 -149 -29.5t-115.5 -75.5t-71.5 -100.5t-26 -105.5v-506h37q29 0 45.5 -20t16.5 -44.5t-16.5 -44.5t-45.5 -20h-205q-29 0 -45.5 20t-16.5 44.5t16.5 44.5t45.5 20h37v1301h-47q-29 0 -45.5 20.5t-16.5 45z" />
<glyph unicode="i" d="M133 1010.5q0 24.5 16.5 44.5t45.5 20h124q26 0 45 -17t19 -46v-883h59q29 0 45.5 -20t16.5 -44.5t-16.5 -44.5t-45.5 -20h-245q-29 0 -45.5 20t-16.5 44.5t16.5 44.5t45.5 20h57v817h-59q-29 0 -45.5 20t-16.5 44.5zM201 1446q0 39 27.5 67.5t68.5 28.5q38 0 67 -29 t29 -67q0 -40 -29 -69t-67 -29q-41 0 -68.5 29t-27.5 69z" />
<glyph unicode="j" horiz-adv-x="542" d="M-31 -354.5q0 24.5 16.5 45t45.5 20.5q66 0 107 14.5t61.5 48t27 73t6.5 104.5v995h-67q-40 0 -56 32q-8 17 -8 33t8 32q16 32 56 32h129q29 0 48 -15.5t19 -45.5v-1065q0 -72 -8 -125.5t-29.5 -101t-58.5 -77.5t-95.5 -47.5t-139.5 -17.5q-29 0 -45.5 20.5t-16.5 45z M176 1446q0 39 27.5 67.5t68.5 28.5q38 0 67.5 -29t29.5 -67q0 -40 -29.5 -69t-67.5 -29q-41 0 -68.5 29t-27.5 69z" />
<glyph unicode="k" horiz-adv-x="1267" d="M151 1464q-8 16 -8 32t8 32q16 32 56 33h127q20 0 34.5 -15t14.5 -35v-966l434 403h-20q-39 0 -55 32q-9 17 -9 33q0 15 7 31q15 32 55 31h274q41 1 57 -31q9 -16 8 -33q0 -15 -8 -30q-16 -31 -55 -31h-63l-328 -307l-35 -31q37 -46 119 -149t149 -187t115 -147h43 q29 0 45.5 -20t16.5 -44.5t-16.5 -44.5t-45.5 -20h-205q-23 0 -39 13t-20 32t0 37.5t20 32t39 14.5q-49 64 -165.5 207.5t-149.5 185.5l-39 -35l-123 -114q-1 -1 -3 -2t-3 -2v-240h16q40 0 56 -32q8 -16 8 -32q0 -17 -8 -33q-16 -32 -56 -32h-182q-40 0 -56 32q-8 16 -8 32 t8 32q16 32 56 33h37v1303h-47q-40 0 -56 32z" />
<glyph unicode="l" horiz-adv-x="604" d="M112 1496.5q0 24.5 16.5 44.5t45.5 20h148q22 0 36.5 -14.5t14.5 -35.5v-1382h57q29 0 45.5 -20t16.5 -44.5t-16.5 -44.5t-45.5 -20h-246q-29 0 -45.5 20t-16.5 44.5t16.5 44.5t45.5 20h58v1303h-68q-29 0 -45.5 20t-16.5 44.5z" />
<glyph unicode="m" horiz-adv-x="2082" d="M143 1010.5q0 24.5 16.5 44.5t45.5 20h129q20 0 34.5 -15.5t14.5 -37.5v-98q47 65 136.5 108t176.5 43q117 0 220.5 -48.5t154.5 -143.5q59 97 161 145q98 47 213 47h9q184 -3 310 -114.5t126 -288.5v-543h37q40 0 56 -32q8 -16 8 -32q0 -17 -8 -33q-16 -32 -56 -32h-203 q-40 0 -56 32q-8 16 -8 32t8 32q16 32 56 33h37v547q0 132 -89 201t-224 69q-124 0 -217.5 -79t-93.5 -201v-537h37q40 0 56 -32q8 -16 8 -32q0 -17 -8 -33q-16 -32 -56 -32h-203q-40 0 -56 32q-8 16 -8 32t8 32q16 32 56 33h37v537q0 123 -95 201.5t-221 78.5 q-130 0 -219.5 -82.5t-89.5 -179.5v-555h37q29 0 45.5 -20t16.5 -44.5t-16.5 -44.5t-45.5 -20h-205q-29 0 -45.5 20t-16.5 44.5t16.5 44.5t45.5 20h39v817h-49q-29 0 -45.5 20t-16.5 44.5z" />
<glyph unicode="n" horiz-adv-x="1382" d="M143 1009.5q0 24.5 16.5 45t45.5 20.5h127q22 0 36.5 -14.5t14.5 -36.5v-115q58 85 154.5 125.5t207.5 40.5q112 0 198.5 -35.5t139.5 -99t80 -148t27 -186.5v-477h39q29 0 45.5 -20t16.5 -44.5t-16.5 -44.5t-45.5 -20h-205q-29 0 -45.5 20t-16.5 44.5t16.5 44.5t45.5 20 h37v477q0 157 -77.5 248.5t-238.5 91.5t-261.5 -92t-100.5 -272v-453h37q29 0 45.5 -20t16.5 -44.5t-16.5 -44.5t-45.5 -20h-205q-29 0 -45.5 20t-16.5 44.5t16.5 44.5t45.5 20h37v815h-47q-29 0 -45.5 20.5t-16.5 45z" />
<glyph unicode="o" horiz-adv-x="1312" d="M115 530v5q-1 105 41 205q42 102 115 176.5t173.5 119.5t208.5 45q140 0 267 -70q128 -71 206 -195q75 -118 74 -255v-14q0 -149 -70 -275t-194 -201t-274 -77h-8q-142 0 -264 70q-126 72 -199.5 197t-75.5 269zM242 532q3 -170 126.5 -290.5t293.5 -120.5 q116 0 211 58.5t147.5 156t52.5 211.5q0 110 -58 204t-153.5 147.5t-202.5 53.5q-171 0 -295 -124q-122 -122 -122 -288v-8z" />
<glyph unicode="p" horiz-adv-x="1392" d="M143 -356.5q0 23.5 16.5 43.5t45.5 20h28v1239h-28q-29 0 -45.5 20t-16.5 44.5t16.5 44.5t45.5 20h108q20 0 34.5 -14.5t14.5 -34.5v-143q67 94 168 148t218 54q149 0 272 -73.5t192.5 -198t69.5 -272.5q0 -146 -68.5 -270t-189 -197.5t-264.5 -73.5q-80 0 -150.5 22 t-114 53t-75.5 62.5t-45 53.5l-13 22v-582q0 -22 -14.5 -36.5t-34.5 -14.5h-108q-29 0 -45.5 20t-16.5 43.5zM362 545q0 -109 48.5 -204t140 -154.5t205.5 -59.5q165 0 280.5 121.5t118.5 290.5v9q0 165 -109 285q-111 123 -292 123h-6q-41 0 -86 -12q-49 -12 -103 -43 t-97.5 -76.5t-71.5 -118.5t-28 -161z" />
<glyph unicode="q" horiz-adv-x="1386" d="M117 541q0 148 69.5 272.5t192.5 198t272 73.5q116 0 217 -54t168 -148v143q0 20 14.5 34.5t34.5 14.5h109q29 0 45.5 -20t16.5 -44.5t-16.5 -44.5t-45.5 -20h-29v-1239h29q29 0 45.5 -20t16.5 -43.5t-16.5 -43.5t-45.5 -20h-109q-20 0 -34.5 14.5t-14.5 36.5v582 q-4 -9 -13.5 -23t-44 -51t-76 -65t-112.5 -51t-151 -23q-144 0 -264.5 73.5t-189 197.5t-68.5 270zM244 539q3 -169 118.5 -290.5t280.5 -121.5q114 0 205.5 59.5t139.5 154.5t48 204q0 88 -28 161t-71 118.5t-97 76.5t-103 43q-45 12 -86 12h-6q-181 0 -293 -123 q-108 -120 -108 -285v-9z" />
<glyph unicode="r" horiz-adv-x="903" d="M151 32q-8 16 -8 32t8 32q16 32 56 33h26v819h-26q-40 0 -56 32q-8 16 -8 32t8 32q16 32 56 31h106q20 0 34.5 -14.5t14.5 -36.5v-131q67 99 161.5 140.5t219.5 41.5h6q24 0 42 -14q20 -16 20 -47q0 -29 -17 -45.5t-34 -18.5l-17 -2h-6q-52 0 -103 -11t-100.5 -36 t-87.5 -61t-61 -90.5t-23 -120.5v-580q0 -20 -14.5 -34.5t-34.5 -14.5h-106q-40 0 -56 32z" />
<glyph unicode="s" horiz-adv-x="1052" d="M154 57v256q0 27 19.5 45.5t45.5 18.5q31 0 50.5 -19.5t19.5 -48.5q0 -67 41 -111q40 -44 96 -62q53 -17 116 -17h7q88 0 166 54t78 140q0 33 -15 59.5t-31.5 41t-54.5 29t-54.5 19t-61.5 14.5q-14 3 -21 5q-199 43 -291 118.5t-92 199.5q0 67 30 122.5t79 90.5t108.5 54 t122.5 19q76 0 142 -29.5t104 -76.5v47q0 29 17.5 43t43.5 14t45 -14t19 -43v-242q-1 -24 -19.5 -39.5t-42.5 -15.5q-28 0 -45.5 16.5t-17.5 42.5q0 87 -68.5 135t-163.5 48q-86 0 -158.5 -46t-72.5 -126q0 -73 70 -118t219 -81q47 -11 72.5 -18t66.5 -21t64.5 -27.5 t52.5 -35.5t44 -47t25.5 -60.5t10.5 -77.5q0 -95 -56.5 -168.5t-139 -109t-173.5 -35.5q-78 0 -153.5 29.5t-118.5 79.5v-52q0 -29 -19 -43t-45 -14t-43.5 14t-17.5 43z" />
<glyph unicode="t" horiz-adv-x="792" d="M71 1009.5q0 24.5 16.5 45t45.5 20.5h94v273q0 29 18.5 45t45.5 16t46 -16t19 -45v-273h209q30 0 47 -19t17 -46t-17 -46.5t-47 -19.5h-209v-649q0 -75 48 -120.5t120 -47.5q48 0 92 14q15 5 27 5q34 0 51 -37q6 -12 6 -25q0 -12 -5 -25q-11 -27 -40 -36 q-67 -23 -120 -23q-159 0 -233.5 93.5t-74.5 252.5v598h-94q-29 0 -45.5 20.5t-16.5 45z" />
<glyph unicode="u" horiz-adv-x="1398" d="M100 1010.5q0 24.5 16.5 44.5t45.5 20h121q22 0 36.5 -14.5t14.5 -34.5v-557q0 -154 83.5 -247t246.5 -93q161 0 261.5 92.5t100.5 272.5v452h-43q-29 0 -45.5 20t-16.5 44.5t16.5 44.5t45.5 20h121q22 0 36.5 -14.5t14.5 -34.5v-895h49q29 0 45.5 -20.5t16.5 -45 t-16.5 -45t-45.5 -20.5h-127q-22 0 -36.5 14.5t-14.5 36.5v115q-58 -85 -154.5 -125.5t-207.5 -40.5q-222 0 -340.5 129.5t-118.5 339.5v477h-43q-29 0 -45.5 20t-16.5 44.5z" />
<glyph unicode="v" horiz-adv-x="1314" d="M81 1009.5q0 24.5 16.5 45t45.5 20.5h226q29 0 45.5 -20.5t16.5 -45t-16.5 -45t-45.5 -20.5h-33l323 -733l320 733h-33q-29 0 -45.5 20.5t-16.5 45t16.5 45t45.5 20.5h225q29 0 45.5 -20.5t16.5 -45t-16.5 -45t-45.5 -20.5h-53l-405 -915q-9 -21 -33 -29q-11 -4 -22 -3 l-24 5q-24 8 -34 31l-403 911h-54q-29 0 -45.5 20.5t-16.5 45z" />
<glyph unicode="w" horiz-adv-x="1873" d="M79 978q-8 16 -8 32.5t8 32.5q16 32 56 32h203q40 0 56 -32q8 -16 8 -32q0 -17 -8 -33q-16 -32 -56 -32h-31l273 -803l297 865q16 47 63 47q41 0 55 -47l281 -856l272 794h-32q-29 0 -45.5 20t-16.5 44.5t16.5 44.5t45.5 20h225q29 0 45.5 -20t16.5 -44.5t-16.5 -44.5 t-45.5 -20h-53l-318 -866q-25 -47 -44 -63.5t-54 -16.5q-39 0 -62 26.5t-30 53.5l-240 743l-264 -751q-9 -30 -34 -49t-58 -21q-67 0 -101 70l-317 874h-31q-40 0 -56 32z" />
<glyph unicode="x" horiz-adv-x="1249" d="M110 32q-8 16 -8 32t8 32q16 32 56 33h35l342 408l-344 405h-33q-40 0 -56 32q-8 16 -8 33t8 33q16 33 56 33h192q40 0 56 -33q8 -16 8 -32q0 -18 -8 -34q-16 -32 -56 -32l258 -299l256 299q-29 0 -45.5 20.5t-16.5 45t16.5 45t45.5 20.5h195q29 0 45.5 -20.5t16.5 -45 t-16.5 -45t-45.5 -20.5h-35l-321 -389l342 -424h32q29 0 45.5 -20t16.5 -44.5t-16.5 -44.5t-45.5 -20h-194q-29 0 -45.5 20t-16.5 44.5t16.5 44.5t45.5 20l-264 324l-267 -324q40 0 56 -32q8 -16 8 -32q0 -17 -8 -33q-16 -32 -56 -32h-194q-40 0 -56 32z" />
<glyph unicode="y" horiz-adv-x="1396" d="M89 976q-8 17 -8 33.5t8 32.5q16 33 56 33h224q40 0 56 -33q8 -16 8 -32.5t-8 -33.5q-16 -32 -56 -32h-33l354 -786l33 63l354 723h-30q-40 0 -56 32q-8 17 -8 33.5t8 32.5q16 33 56 33h204q40 0 56 -33q8 -16 8 -32.5t-8 -33.5q-16 -32 -56 -32h-32l-627 -1245h33 q40 0 56 -33q8 -16 8 -32t-8 -33q-16 -33 -56 -33h-224q-40 0 -56 32q-8 17 -8 33.5t8 32.5q16 33 56 33h50l161 305l4 8l-419 932h-52q-40 0 -56 32z" />
<glyph unicode="z" horiz-adv-x="1206" d="M154 57q0 29 24 60l674 829h-567v-26q0 -29 -20 -45.5t-44.5 -16.5t-44.5 16.5t-20 45.5v90q0 27 16 46t45 19h770q27 0 46.5 -17t19.5 -44q0 -21 -25 -56l-672 -829h564v29q0 29 20 45.5t44.5 16.5t44.5 -16.5t20 -45.5v-92q0 -27 -16.5 -46.5t-45.5 -19.5h-770 q-30 0 -45.5 15.5t-17.5 41.5z" />
<glyph unicode="{" horiz-adv-x="665" d="M182 750q0 19 10 35t27 20q38 9 52 55t10.5 97t-10.5 124.5t-5 110.5q2 38 3.5 60t5.5 53.5t9 49.5t13.5 42t20.5 37t29 28t38.5 22t50.5 12t64 5q26 0 44.5 -18.5t18.5 -46.5q0 -26 -18.5 -45t-44.5 -19q-27 0 -45.5 -8.5t-29.5 -21t-17.5 -39.5t-9 -50t-5.5 -67 q-1 -13 0.5 -110t-2.5 -134q-9 -98 -23 -141t-53 -51q17 -3 29 -12t20 -28t13 -35t8.5 -49.5t4.5 -53.5t3 -64q1 -28 0 -100.5t0 -92.5q3 -44 5.5 -67t9 -50t17.5 -39.5t29.5 -21t45.5 -8.5q26 0 44.5 -18.5t18.5 -44.5q0 -28 -18.5 -47t-44.5 -19q-35 0 -64 5t-50.5 12 t-38.5 22t-29 28t-20.5 37t-13.5 42t-9 49.5t-5.5 53.5t-3.5 60q-2 37 5 109.5t10.5 122.5t-10.5 96t-52 57q-17 4 -28 21t-9 35z" />
<glyph unicode="}" horiz-adv-x="663" d="M139 66q0 26 19 44.5t45 18.5q23 0 39.5 4.5t27.5 17.5t17.5 25t11 37.5t6.5 45t4 56.5q1 20 0 92.5t0 100.5q2 44 3 64t4.5 53.5t8.5 49.5t13 35t20 28t29 12q-39 8 -53 51t-23 141q-4 37 -2.5 134t0.5 110q-2 37 -4 56.5t-6.5 45t-11 37.5t-17.5 25t-27.5 17.5 t-39.5 4.5q-26 0 -45 19t-19 45q0 28 18.5 46.5t45.5 18.5q45 0 79.5 -8t58 -20t40.5 -36t26.5 -44.5t15.5 -59t8 -65t5 -76.5q2 -37 -5 -110.5t-10.5 -124.5t10.5 -97t52 -55q17 -4 27 -20t10 -35q2 -18 -9 -35t-28 -21q-38 -11 -52 -57t-10.5 -96t10.5 -122.5t5 -109.5 q-3 -50 -5 -76.5t-8 -65t-15.5 -59t-26.5 -44.5t-40.5 -36t-58 -20t-79.5 -8q-26 0 -45 19t-19 47z" />
<glyph unicode="&#xa1;" horiz-adv-x="335" d="M88 -350q0 -32 21 -55t55 -23q76 0 76 78l-23 1024q0 24 -11 40t-26.5 19t-31 -1t-26 -20.5t-9.5 -39.5zM96 979v35q0 29 21 44t49 15t49 -15t21 -44v-35q0 -29 -21.5 -45t-48.5 -16t-48.5 16t-21.5 45z" />
<glyph unicode="&#xa2;" horiz-adv-x="1296" d="M170 514q0 122 38 224t102.5 170.5t144 111.5t168.5 57v70q0 30 19 46.5t46 16.5t46.5 -16.5t19.5 -46.5v-66q89 -8 163.5 -44t108.5 -95v51q0 29 15 43.5t40 14.5t41.5 -14.5t16.5 -43.5v-221q0 -27 -17.5 -41t-42.5 -14q-41 0 -55 65q-18 81 -111.5 126.5t-205.5 45.5 q-76 0 -146.5 -25.5t-130 -76t-95.5 -138t-36 -200.5q0 -103 59 -193.5t153 -142t196 -51.5q93 0 177.5 31t135.5 96q15 21 41.5 24t46.5 -12q23 -17 26 -43.5t-14 -48.5q-57 -75 -157.5 -119.5t-208.5 -54.5v-66q0 -30 -19.5 -46.5t-46.5 -16.5t-46 16.5t-19 46.5v70 q-188 30 -320.5 175.5t-132.5 334.5z" />
<glyph unicode="&#xa3;" horiz-adv-x="1191" d="M102 686q0 27 17 46.5t47 19.5h61v313q0 116 57.5 216t158 159t219.5 59h176q28 0 45.5 -18.5t17.5 -46.5v-91q0 -40 -32.5 -56t-64.5 0t-32 56v27h-110q-127 0 -217.5 -90t-90.5 -215v-313h469q30 0 47 -19.5t17 -46.5q0 -25 -17 -44t-47 -19h-469q0 -74 1 -219.5 t1 -217.5q0 -40 -32 -56t-64.5 0t-32.5 56v437h-61q-30 0 -47 19t-17 44zM142 88q10 31 40 39q17 -30 47.5 -47t65.5 -17q35 2 64 19t44 47h558v27q0 40 32.5 56t64.5 0t32 -56v-90q0 -27 -16.5 -46.5t-45.5 -19.5h-827q-36 0 -52.5 28.5t-6.5 59.5z" />
<glyph unicode="&#xa5;" horiz-adv-x="1509" d="M110 1402q-16 32 0 64.5t56 32.5h162q38 0 54 -31t2 -63t-50 -35l422 -655l420 655q-36 3 -50 35t2 63t54 31h164q29 0 45.5 -20t16.5 -44.5t-16.5 -44.5t-45.5 -20h-17l-455 -711h177q29 0 46 -19.5t17 -45.5q0 -25 -17 -44.5t-46 -19.5h-232v-100h232q29 0 46 -19 t17 -44q0 -27 -17 -46.5t-46 -19.5h-232v-172h17q40 0 56 -32t0 -64.5t-56 -32.5h-162q-29 0 -45.5 20t-16.5 44.5t16.5 44.5t45.5 20h16v172h-231q-29 0 -45.5 19.5t-16.5 46.5q0 25 16.5 44t45.5 19h231v100h-231q-29 0 -45.5 19.5t-16.5 44.5q0 27 16.5 46t45.5 19h178 l-457 711h-14q-40 0 -56 32z" />
<glyph unicode="&#xa8;" horiz-adv-x="772" d="M102 1331q0 37 25.5 63.5t62.5 26.5t63 -26.5t26 -63.5q0 -35 -26.5 -61.5t-62.5 -26.5t-62 26t-26 62zM494 1331q0 -36 26 -62t62 -26t62 26t26 62q0 37 -25.5 63.5t-62.5 26.5t-62.5 -26.5t-25.5 -63.5z" />
<glyph unicode="&#xa9;" horiz-adv-x="1097" d="M66 1069q0 134 65.5 247t178.5 179t247 66t247 -66t179 -179t66 -247t-66 -247t-179 -178.5t-247 -65.5t-247 65.5t-178.5 178.5t-65.5 247zM123 1069q1 -118 59 -217.5t157 -157t216 -57.5q181 0 307.5 126t126.5 306t-126.5 306t-307.5 126q-117 0 -216 -57.5 t-157 -157t-59 -217.5zM301 1069q0 125 83.5 203t188.5 78q41 0 81 -16t55 -40v33q0 11 6.5 17t15.5 6q25 0 25 -23v-110q0 -25 -23 -25q-8 0 -14 5.5t-6 14.5v7q-2 33 -37.5 58.5t-102.5 25.5q-88 0 -156.5 -64t-68.5 -170q0 -94 66.5 -164t158.5 -67q87 0 158 71 q6 6 16.5 6t16.5 -6q8 -6 8 -16t-8 -16q-80 -86 -193 -86q-112 0 -191 82t-79 196z" />
<glyph unicode="&#xad;" horiz-adv-x="937" d="M102 516q0 27 16.5 46.5t45.5 19.5h608q30 0 47 -19.5t17 -46.5t-16.5 -45t-47.5 -18h-608q-29 0 -45.5 18.5t-16.5 44.5z" />
<glyph unicode="&#xae;" horiz-adv-x="1097" d="M66 1069q0 134 65.5 247t178.5 179t247 66t247 -66t179 -179t66 -247t-66 -247t-179 -178.5t-247 -65.5t-247 65.5t-178.5 178.5t-65.5 247zM123 1069q1 -118 59 -217.5t157 -157t216 -57.5q181 0 307.5 126t126.5 306t-126.5 306t-307.5 126q-117 0 -216 -57.5 t-157 -157t-59 -217.5zM360 830.5q0 23.5 23 23.5h12v455h-10q-23 0 -23 23.5t23 23.5h190q66 0 112 -46.5t46 -111.5q2 -53 -29 -94.5t-83 -56.5q-4 0 -7 -3l117 -190h23q23 0 23 -23.5t-23 -23.5h-37q-17 0 -29 18l-125 215h-121v-186h15q23 0 23 -23.5t-23 -23.5h-74 q-23 0 -23 23.5zM442 1087h133q47 0 80.5 32.5t32.5 78.5q-2 45 -34.5 78t-78.5 33h-133v-222z" />
<glyph unicode="&#xaf;" horiz-adv-x="696" d="M102 1330.5q0 24.5 16.5 44.5t45.5 20h368q29 0 45.5 -20t16.5 -44.5t-16.5 -44.5t-45.5 -20h-368q-29 0 -45.5 20t-16.5 44.5z" />
<glyph unicode="&#xb0;" horiz-adv-x="499" d="M108.5 1309.5q-9.5 37.5 0.5 72.5q10 49 51 81t92 32q46 -2 84 -29t51 -71q14 -38 4.5 -79t-39.5 -71q-43 -43 -103.5 -43t-103.5 43q-27 27 -36.5 64.5zM205.5 1367.5q-13.5 -29.5 9.5 -52.5q13 -13 34 -13t34 13q24 23 11 52.5t-44 29.5t-44.5 -29.5z" />
<glyph unicode="&#xb4;" horiz-adv-x="487" d="M119 1289q-3 23 18 48l156 152q20 20 47 20q30 0 51 -20.5t21 -50.5q0 -36 -39 -60l-176 -121q-25 -14 -50 -2.5t-28 34.5z" />
<glyph unicode="&#xb5;" horiz-adv-x="1386" d="M90 -317q0 27 16.5 46t45.5 19h45v1198h-43q-29 0 -45.5 20t-16.5 44.5t16.5 44.5t45.5 20h120q22 0 37 -14.5t15 -34.5l2 -649q0 -140 87 -205.5t240 -65.5q371 0 371 416v424h-39q-29 0 -45.5 20t-16.5 44.5t16.5 44.5t45.5 20h117q22 0 36.5 -14.5t14.5 -34.5v-897h59 q29 0 45.5 -20t16.5 -44.5t-16.5 -44.5t-45.5 -20h-139q-20 0 -34.5 14.5t-14.5 34.5v111q-121 -180 -375 -180q-101 0 -185.5 31t-137.5 91v-354h45q29 0 45 -19t16 -46q0 -26 -16 -45t-45 -19h-221q-29 0 -45.5 19.5t-16.5 44.5z" />
<glyph unicode="&#xbf;" horiz-adv-x="1073" d="M109 420q0 70 22.5 128.5t58 101t79 81t86.5 76t78.5 77.5t58 94.5t22.5 119.5q0 39 29 55t57.5 0.5t28.5 -55.5q0 -75 -21.5 -140t-56.5 -111.5t-76.5 -88.5t-83.5 -79.5t-77 -75.5t-56.5 -85.5t-21.5 -101.5q0 -123 90 -205t215 -82q101 0 187.5 44.5t121.5 123.5 q23 51 71 47q38 -3 53 -35q12 -24 -1 -51q-50 -120 -171 -189t-263 -69q-177 0 -303.5 123t-126.5 297zM508 1407v35q0 29 21 44t49 15t48.5 -15t20.5 -44v-35q0 -29 -21 -45t-48 -16t-48.5 16t-21.5 45z" />
<glyph unicode="&#xc0;" horiz-adv-x="1517" d="M92 64.5q0 24.5 16.5 44.5t45.5 20h26l484 1243q-24 5 -37 26t-11.5 44t18 41t44.5 18h162q28 0 44.5 -18t18.5 -41t-11 -44t-38 -26l485 -1243h25q29 0 45.5 -20t16.5 -44.5t-16.5 -44.5t-45.5 -20h-172q-40 0 -56 32t0 64.5t56 32.5h8l-110 283h-662l-111 -283h11 q29 0 45.5 -20t16.5 -44.5t-16.5 -44.5t-45.5 -20h-174q-29 0 -45.5 20t-16.5 44.5zM479 541h561l-280 721zM494 1864q0 30 20.5 50.5t50.5 20.5q27 0 47 -20q53 -49 156 -152q23 -22 18 -48t-27.5 -34.5t-49.5 2.5q-100 64 -177 121q-38 30 -38 60z" />
<glyph unicode="&#xc1;" horiz-adv-x="1517" d="M92 64.5q0 24.5 16.5 44.5t45.5 20h26l484 1243q-24 5 -37 26t-11.5 44t18 41t44.5 18h162q28 0 44.5 -18t18.5 -41t-11 -44t-38 -26l485 -1243h25q29 0 45.5 -20t16.5 -44.5t-16.5 -44.5t-45.5 -20h-172q-40 0 -56 32t0 64.5t56 32.5h8l-110 283h-662l-111 -283h11 q29 0 45.5 -20t16.5 -44.5t-16.5 -44.5t-45.5 -20h-174q-29 0 -45.5 20t-16.5 44.5zM479 541h561l-280 721zM729.5 1715q-3.5 23 18.5 48l155 152q20 20 47 20q30 0 51 -20.5t21 -50.5q0 -36 -39 -60l-176 -121q-25 -14 -49.5 -2.5t-28 34.5z" />
<glyph unicode="&#xc2;" horiz-adv-x="1517" d="M92 64.5q0 24.5 16.5 44.5t45.5 20h26l484 1243q-24 5 -37 26t-11.5 44t18 41t44.5 18h162q28 0 44.5 -18t18.5 -41t-11 -44t-38 -26l485 -1243h25q29 0 45.5 -20t16.5 -44.5t-16.5 -44.5t-45.5 -20h-172q-40 0 -56 32t0 64.5t56 32.5h8l-110 283h-662l-111 -283h11 q29 0 45.5 -20t16.5 -44.5t-16.5 -44.5t-45.5 -20h-174q-29 0 -45.5 20t-16.5 44.5zM479 541h561l-280 721zM531.5 1732.5q-2.5 19.5 9.5 34.5l178 156q17 17 39 17t39 -17l178 -156q14 -13 9 -34.5t-23.5 -30t-45.5 5.5l-157 86l-158 -86q-25 -15 -45.5 -5t-23 29.5z" />
<glyph unicode="&#xc3;" horiz-adv-x="1517" d="M92 64.5q0 24.5 16.5 44.5t45.5 20h26l484 1243q-24 5 -37 26t-11.5 44t18 41t44.5 18h162q28 0 44.5 -18t18.5 -41t-11 -44t-38 -26l485 -1243h25q29 0 45.5 -20t16.5 -44.5t-16.5 -44.5t-45.5 -20h-172q-40 0 -56 32t0 64.5t56 32.5h8l-110 283h-662l-111 -283h11 q29 0 45.5 -20t16.5 -44.5t-16.5 -44.5t-45.5 -20h-174q-29 0 -45.5 20t-16.5 44.5zM479 541h561l-280 721zM516 1758.5q-3 25.5 12 49.5q55 74 140 74q33 0 89.5 -30.5t90.5 -30.5q21 0 43 26q41 50 90 8q18 -15 20.5 -40.5t-12.5 -49.5q-54 -73 -139 -73q-33 0 -89.5 30.5 t-90.5 30.5q-20 0 -43 -27q-41 -50 -90 -8q-18 15 -21 40.5z" />
<glyph unicode="&#xc4;" horiz-adv-x="1517" d="M92 64.5q0 24.5 16.5 44.5t45.5 20h26l484 1243q-24 5 -37 26t-11.5 44t18 41t44.5 18h162q28 0 44.5 -18t18.5 -41t-11 -44t-38 -26l485 -1243h25q29 0 45.5 -20t16.5 -44.5t-16.5 -44.5t-45.5 -20h-172q-40 0 -56 32t0 64.5t56 32.5h8l-110 283h-662l-111 -283h11 q29 0 45.5 -20t16.5 -44.5t-16.5 -44.5t-45.5 -20h-174q-29 0 -45.5 20t-16.5 44.5zM475 1757q0 37 25.5 63.5t62.5 26.5t62.5 -26.5t25.5 -63.5q0 -36 -26 -62t-62 -26t-62 26t-26 62zM479 541h561l-280 721zM866 1757q0 -36 26 -62t62 -26t62 26t26 62q0 37 -25.5 63.5 t-62.5 26.5t-62.5 -26.5t-25.5 -63.5z" />
<glyph unicode="&#xc5;" horiz-adv-x="1517" d="M92 64.5q0 24.5 16.5 44.5t45.5 20h26l484 1243q-24 5 -37 26t-11.5 44t18 41t44.5 18h162q28 0 44.5 -18t18.5 -41t-11 -44t-38 -26l485 -1243h25q29 0 45.5 -20t16.5 -44.5t-16.5 -44.5t-45.5 -20h-172q-40 0 -56 32t0 64.5t56 32.5h8l-110 283h-662l-111 -283h11 q29 0 45.5 -20t16.5 -44.5t-16.5 -44.5t-45.5 -20h-174q-29 0 -45.5 20t-16.5 44.5zM479 541h561l-280 721zM612 1780q0 61 44 104t106 43q59 0 101 -42.5t42 -102.5t-44 -104t-101 -44q-59 0 -103.5 44t-44.5 102zM692 1780q0 -27 21 -46.5t45 -19.5q30 0 49.5 20t19.5 48 q0 27 -19 47t-48 20q-28 0 -48 -21t-20 -48z" />
<glyph unicode="&#xc8;" horiz-adv-x="1419" d="M192 32q-16 32 0 64.5t56 32.5h26v1243h-26q-40 0 -56 32t0 64.5t56 32.5h934q30 0 46.5 -20t14.5 -47v-91q0 -29 -20 -45.5t-44.5 -16.5t-44.5 16.5t-20 45.5v29h-711v-557h605q29 0 45.5 -20.5t16.5 -45t-16.5 -45t-45.5 -20.5h-605v-555h711v29q0 29 20 45.5 t44.5 16.5t44.5 -16.5t20 -45.5v-92q0 -27 -16 -46.5t-45 -19.5h-934q-40 0 -56 32zM547 1864q0 30 20.5 50.5t50.5 20.5q28 0 48 -20q40 -37 155 -152q23 -22 18 -48t-27.5 -34.5t-49.5 2.5q-94 60 -176 121q-39 31 -39 60z" />
<glyph unicode="&#xc9;" horiz-adv-x="1419" d="M192 32q-16 32 0 64.5t56 32.5h26v1243h-26q-40 0 -56 32t0 64.5t56 32.5h934q30 0 46.5 -20t14.5 -47v-91q0 -29 -20 -45.5t-44.5 -16.5t-44.5 16.5t-20 45.5v29h-711v-557h605q29 0 45.5 -20.5t16.5 -45t-16.5 -45t-45.5 -20.5h-605v-555h711v29q0 29 20 45.5 t44.5 16.5t44.5 -16.5t20 -45.5v-92q0 -27 -16 -46.5t-45 -19.5h-934q-40 0 -56 32zM577.5 1715q-3.5 23 18.5 48l156 152q20 20 47 20q30 0 50.5 -20.5t20.5 -50.5q0 -36 -39 -60l-176 -121q-25 -14 -49.5 -2.5t-28 34.5z" />
<glyph unicode="&#xca;" horiz-adv-x="1419" d="M192 32q-16 32 0 64.5t56 32.5h26v1243h-26q-40 0 -56 32t0 64.5t56 32.5h934q30 0 46.5 -20t14.5 -47v-91q0 -29 -20 -45.5t-44.5 -16.5t-44.5 16.5t-20 45.5v29h-711v-557h605q29 0 45.5 -20.5t16.5 -45t-16.5 -45t-45.5 -20.5h-605v-555h711v29q0 29 20 45.5 t44.5 16.5t44.5 -16.5t20 -45.5v-92q0 -27 -16 -46.5t-45 -19.5h-934q-40 0 -56 32zM482.5 1732.5q-2.5 19.5 9.5 34.5l178 156q17 17 39 17t39 -17l178 -156q14 -13 9 -34.5t-23.5 -30t-45.5 5.5l-157 86l-158 -86q-25 -15 -45.5 -5t-23 29.5z" />
<glyph unicode="&#xcb;" horiz-adv-x="1419" d="M192 32q-16 32 0 64.5t56 32.5h26v1243h-26q-40 0 -56 32t0 64.5t56 32.5h934q30 0 46.5 -20t14.5 -47v-91q0 -29 -20 -45.5t-44.5 -16.5t-44.5 16.5t-20 45.5v29h-711v-557h605q29 0 45.5 -20.5t16.5 -45t-16.5 -45t-45.5 -20.5h-605v-555h711v29q0 29 20 45.5 t44.5 16.5t44.5 -16.5t20 -45.5v-92q0 -27 -16 -46.5t-45 -19.5h-934q-40 0 -56 32zM446 1757q0 37 26 63.5t63 26.5t62.5 -26.5t25.5 -63.5q0 -36 -26 -62t-62 -26q-37 0 -63 26.5t-26 61.5zM838 1757q0 -36 26 -62t62 -26t62 26t26 62q0 37 -25.5 63.5t-62.5 26.5 t-62.5 -26.5t-25.5 -63.5z" />
<glyph unicode="&#xcc;" d="M145 1864q0 30 20.5 50.5t51.5 20.5q27 0 47 -20q53 -49 156 -152q23 -22 18 -48t-28 -34.5t-50 2.5q-93 60 -176 121q-39 31 -39 60zM171 32q-16 32 0 64.5t56 32.5h17v1243h-17q-40 0 -56 32t0 64.5t56 32.5h162q40 0 56 -32.5t0 -64.5t-56 -32h-16v-1243h16 q40 0 56 -32t0 -64.5t-56 -32.5h-162q-40 0 -56 32z" />
<glyph unicode="&#xcd;" d="M160 1715q-3 23 18 48l156 152q20 20 47 20q31 0 51.5 -20.5t20.5 -50.5q0 -36 -39 -60l-176 -121q-25 -14 -50 -2.5t-28 34.5zM171 32.5q16 -32.5 56 -32.5h162q40 0 56 32t0 64.5t-56 32.5h-16v1243h16q40 0 56 32t0 64.5t-56 32.5h-162q-40 0 -56 -32.5t0 -64.5 t56 -32h17v-1243h-17q-40 0 -56 -32t0 -64.5z" />
<glyph unicode="&#xce;" d="M80.5 1732.5q-2.5 19.5 9.5 34.5l178 156q17 17 39 17t39 -17l178 -156q14 -13 9 -34.5t-23 -30t-45 5.5l-158 86l-157 -86q-25 -15 -46 -5t-23.5 29.5zM171 32.5q16 -32.5 56 -32.5h162q40 0 56 32t0 64.5t-56 32.5h-16v1243h16q40 0 56 32t0 64.5t-56 32.5h-162 q-40 0 -56 -32.5t0 -64.5t56 -32h17v-1243h-17q-40 0 -56 -32t0 -64.5z" />
<glyph unicode="&#xcf;" d="M25 1757q0 37 25.5 63.5t62.5 26.5t62.5 -26.5t25.5 -63.5q0 -36 -26 -62t-62 -26t-62 26t-26 62zM171 32.5q16 -32.5 56 -32.5h162q40 0 56 32t0 64.5t-56 32.5h-16v1243h16q40 0 56 32t0 64.5t-56 32.5h-162q-40 0 -56 -32.5t0 -64.5t56 -32h17v-1243h-17 q-40 0 -56 -32t0 -64.5zM416 1757q0 -36 26 -62t62 -26t62 26t26 62q0 37 -25.5 63.5t-62.5 26.5t-62.5 -26.5t-25.5 -63.5z" />
<glyph unicode="&#xd1;" horiz-adv-x="1597" d="M184 1436.5q0 24.5 16.5 44.5t45.5 20h92q34 0 57 -33l682 -1013l144 -248l-17 244v921h-16q-29 0 -45.5 20t-16.5 44.5t16.5 44.5t45.5 20h162q40 0 56 -32.5t0 -64.5t-56 -32h-17v-1313q0 -59 -78 -59q-44 0 -61 33l-791 1188v-1092h17q29 0 45.5 -20t16.5 -44.5 t-16.5 -44.5t-45.5 -20h-164q-29 0 -45.5 20t-16.5 44.5t16.5 44.5t45.5 20h16v1243h-26q-29 0 -45.5 20t-16.5 44.5zM534.5 1758.5q-2.5 25.5 12.5 49.5q55 74 139 74q33 0 89.5 -30.5t90.5 -30.5q21 0 43 26q41 50 90 8q18 -15 21 -40.5t-12 -49.5q-54 -73 -140 -73 q-33 0 -89.5 30.5t-90.5 30.5q-20 0 -43 -27q-41 -50 -90 -8q-18 15 -20.5 40.5z" />
<glyph unicode="&#xd2;" horiz-adv-x="1757" d="M115 741q0 159 63.5 303.5t168 247.5t245.5 163.5t291 60.5q156 0 298 -63.5t243 -168.5t161 -244.5t60 -287.5q0 -156 -62.5 -298.5t-167 -244.5t-245 -162.5t-291.5 -60.5q-203 0 -379 102.5t-280.5 277t-104.5 375.5zM244 743q0 -125 52 -241t138.5 -200t204 -134.5 t242.5 -50.5q166 0 312 83.5t234.5 230t88.5 319.5q0 167 -85 314t-232.5 236t-319.5 89q-124 0 -240.5 -51.5t-203 -137.5t-139 -206.5t-52.5 -250.5zM717 1864q0 30 20.5 50.5t50.5 20.5q28 0 48 -20q40 -37 155 -152q23 -22 18 -48t-27.5 -34.5t-49.5 2.5 q-93 60 -176 121q-39 31 -39 60z" />
<glyph unicode="&#xd3;" horiz-adv-x="1757" d="M115 741q0 159 63.5 303.5t168 247.5t245.5 163.5t291 60.5q156 0 298 -63.5t243 -168.5t161 -244.5t60 -287.5q0 -156 -62.5 -298.5t-167 -244.5t-245 -162.5t-291.5 -60.5q-203 0 -379 102.5t-280.5 277t-104.5 375.5zM244 743q0 -125 52 -241t138.5 -200t204 -134.5 t242.5 -50.5q166 0 312 83.5t234.5 230t88.5 319.5q0 167 -85 314t-232.5 236t-319.5 89q-124 0 -240.5 -51.5t-203 -137.5t-139 -206.5t-52.5 -250.5zM727 1715q-3 23 18 48l156 152q20 20 47 20q30 0 51 -20.5t21 -50.5q0 -36 -39 -60l-176 -121q-25 -14 -50 -2.5 t-28 34.5z" />
<glyph unicode="&#xd4;" horiz-adv-x="1757" d="M115 741q0 159 63.5 303.5t168 247.5t245.5 163.5t291 60.5q156 0 298 -63.5t243 -168.5t161 -244.5t60 -287.5q0 -156 -62.5 -298.5t-167 -244.5t-245 -162.5t-291.5 -60.5q-203 0 -379 102.5t-280.5 277t-104.5 375.5zM244 743q0 -125 52 -241t138.5 -200t204 -134.5 t242.5 -50.5q166 0 312 83.5t234.5 230t88.5 319.5q0 167 -85 314t-232.5 236t-319.5 89q-124 0 -240.5 -51.5t-203 -137.5t-139 -206.5t-52.5 -250.5zM652.5 1732.5q-2.5 19.5 9.5 34.5l178 156q17 17 39 17t39 -17l178 -156q14 -13 9 -34.5t-23.5 -30t-45.5 5.5l-157 86 l-158 -86q-25 -15 -45.5 -5t-23 29.5z" />
<glyph unicode="&#xd5;" horiz-adv-x="1757" d="M115 741q0 159 63.5 303.5t168 247.5t245.5 163.5t291 60.5q156 0 298 -63.5t243 -168.5t161 -244.5t60 -287.5q0 -156 -62.5 -298.5t-167 -244.5t-245 -162.5t-291.5 -60.5q-203 0 -379 102.5t-280.5 277t-104.5 375.5zM244 743q0 -125 52 -241t138.5 -200t204 -134.5 t242.5 -50.5q166 0 312 83.5t234.5 230t88.5 319.5q0 167 -85 314t-232.5 236t-319.5 89q-124 0 -240.5 -51.5t-203 -137.5t-139 -206.5t-52.5 -250.5zM634.5 1758.5q-2.5 25.5 12.5 49.5q55 74 139 74q33 0 90 -30.5t91 -30.5q21 0 43 26q41 50 90 8q18 -15 20.5 -40.5 t-12.5 -49.5q-54 -73 -139 -73q-33 0 -90 30.5t-91 30.5q-20 0 -43 -27q-41 -50 -90 -8q-18 15 -20.5 40.5z" />
<glyph unicode="&#xd6;" horiz-adv-x="1757" d="M115 741q0 159 63.5 303.5t168 247.5t245.5 163.5t291 60.5q156 0 298 -63.5t243 -168.5t161 -244.5t60 -287.5q0 -156 -62.5 -298.5t-167 -244.5t-245 -162.5t-291.5 -60.5q-203 0 -379 102.5t-280.5 277t-104.5 375.5zM244 743q0 -125 52 -241t138.5 -200t204 -134.5 t242.5 -50.5q166 0 312 83.5t234.5 230t88.5 319.5q0 167 -85 314t-232.5 236t-319.5 89q-124 0 -240.5 -51.5t-203 -137.5t-139 -206.5t-52.5 -250.5zM594 1757q0 37 25.5 63.5t62.5 26.5t62.5 -26.5t25.5 -63.5q0 -36 -26 -62t-62 -26t-62 26t-26 62zM985 1757 q0 -36 26 -62t62 -26t62 26t26 62q0 37 -25.5 63.5t-62.5 26.5t-62.5 -26.5t-25.5 -63.5z" />
<glyph unicode="&#xd7;" horiz-adv-x="765" d="M102.5 344q-1.5 24 18.5 47l170 170l-170 170q-20 23 -18.5 47t20.5 43t43 20.5t47 -18.5l170 -170l170 170q23 20 47 18.5t43 -20.5t20.5 -43t-18.5 -47l-170 -170l170 -170q20 -23 18.5 -47t-20.5 -43t-43 -20.5t-47 18.5l-170 170l-170 -170q-23 -20 -47 -18.5 t-43 20.5t-20.5 43z" />
<glyph unicode="&#xd9;" horiz-adv-x="1466" d="M133 1436.5q0 24.5 16.5 44.5t45.5 20h161q40 0 56 -32.5t0 -64.5t-56 -32h-16v-864q0 -158 115 -269.5t272 -111.5t272 111.5t115 269.5v864h-16q-40 0 -56 32t0 64.5t56 32.5h162q29 0 45.5 -20t16.5 -44.5t-16.5 -44.5t-45.5 -20h-17v-862q0 -139 -71.5 -257 t-190 -185.5t-254.5 -67.5t-254.5 67.5t-190 185.5t-71.5 257v862h-16q-29 0 -45.5 20t-16.5 44.5zM571 1864q0 30 20.5 50.5t51.5 20.5q27 0 47 -20q53 -49 156 -152q23 -22 18 -48t-28 -34.5t-50 2.5q-93 60 -176 121q-39 31 -39 60z" />
<glyph unicode="&#xda;" horiz-adv-x="1466" d="M133 1436.5q0 24.5 16.5 44.5t45.5 20h161q40 0 56 -32.5t0 -64.5t-56 -32h-16v-864q0 -158 115 -269.5t272 -111.5t272 111.5t115 269.5v864h-16q-40 0 -56 32t0 64.5t56 32.5h162q29 0 45.5 -20t16.5 -44.5t-16.5 -44.5t-45.5 -20h-17v-862q0 -139 -71.5 -257 t-190 -185.5t-254.5 -67.5t-254.5 67.5t-190 185.5t-71.5 257v862h-16q-29 0 -45.5 20t-16.5 44.5zM602.5 1715q-3.5 23 18.5 48l155 152q20 20 47 20q31 0 51.5 -20.5t20.5 -50.5q0 -36 -39 -60l-176 -121q-25 -14 -49.5 -2.5t-28 34.5z" />
<glyph unicode="&#xdb;" horiz-adv-x="1466" d="M133 1436.5q0 24.5 16.5 44.5t45.5 20h161q40 0 56 -32.5t0 -64.5t-56 -32h-16v-864q0 -158 115 -269.5t272 -111.5t272 111.5t115 269.5v864h-16q-40 0 -56 32t0 64.5t56 32.5h162q29 0 45.5 -20t16.5 -44.5t-16.5 -44.5t-45.5 -20h-17v-862q0 -139 -71.5 -257 t-190 -185.5t-254.5 -67.5t-254.5 67.5t-190 185.5t-71.5 257v862h-16q-29 0 -45.5 20t-16.5 44.5zM506.5 1732.5q-2.5 19.5 9.5 34.5l178 156q17 17 39 17t39 -17l178 -156q14 -13 9 -34.5t-23 -30t-45 5.5l-158 86l-158 -86q-25 -15 -45.5 -5t-23 29.5z" />
<glyph unicode="&#xdc;" horiz-adv-x="1466" d="M133 1436.5q0 24.5 16.5 44.5t45.5 20h161q40 0 56 -32.5t0 -64.5t-56 -32h-16v-864q0 -158 115 -269.5t272 -111.5t272 111.5t115 269.5v864h-16q-40 0 -56 32t0 64.5t56 32.5h162q29 0 45.5 -20t16.5 -44.5t-16.5 -44.5t-45.5 -20h-17v-862q0 -139 -71.5 -257 t-190 -185.5t-254.5 -67.5t-254.5 67.5t-190 185.5t-71.5 257v862h-16q-29 0 -45.5 20t-16.5 44.5zM449 1757q0 37 25.5 63.5t62.5 26.5t62.5 -26.5t25.5 -63.5q0 -36 -26 -62t-62 -26t-62 26t-26 62zM840 1757q0 -36 26 -62t62 -26t62 26t26 62q0 37 -25.5 63.5t-62.5 26.5 t-62.5 -26.5t-25.5 -63.5z" />
<glyph unicode="&#xdd;" horiz-adv-x="1488" d="M100 1402q-16 32 0 64.5t56 32.5h161q28 0 45 -19.5t17.5 -43t-14 -44t-41.5 -22.5l421 -676l420 676q-36 3 -50 35t2 63t54 31h164q29 0 45.5 -20t16.5 -44.5t-16.5 -44.5t-45.5 -20h-16l-510 -797v-444h16q40 0 56 -32t0 -64.5t-56 -32.5h-161q-29 0 -45.5 20 t-16.5 44.5t16.5 44.5t45.5 20h16v444l-510 797h-14q-40 0 -56 32zM612.5 1715q-3.5 23 18.5 48l155 152q20 20 48 20q30 0 50.5 -20.5t20.5 -50.5q0 -36 -39 -60l-176 -121q-25 -14 -49.5 -2.5t-28 34.5z" />
<glyph unicode="&#xdf;" horiz-adv-x="1394" d="M184 63q0 27 16.5 46.5t45.5 19.5h47v995q0 185 101.5 281t277.5 96q167 0 265.5 -95.5t98.5 -264.5q0 -49 -17.5 -90.5t-43 -70.5t-51 -55.5t-43 -59t-17.5 -68.5q0 -38 22.5 -71.5t55.5 -58.5t72.5 -57t72.5 -64t55.5 -83t22.5 -111q0 -173 -110 -262.5t-301 -89.5 q-99 0 -158 41q-34 25 -20.5 69t55.5 44q11 0 46 -12.5t77 -12.5q148 0 215 55t67 160q0 50 -22.5 92.5t-55.5 71t-72.5 60t-72.5 59.5t-55.5 69.5t-22.5 89.5q0 53 18 96.5t43.5 73t51 56.5t43.5 59.5t18 69.5q0 231 -241 231q-51 0 -91.5 -10.5t-65.5 -25t-43.5 -39 t-27 -44t-13 -49.5t-5 -45t-0.5 -40v-9v-1044q0 -29 -12 -45.5t-24 -18.5l-11 -2h-129q-29 0 -45.5 19t-16.5 44z" />
<glyph unicode="&#xe0;" horiz-adv-x="1374" d="M113 535q0 109 40.5 208.5t110 172.5t166.5 116t205 43q80 0 150.5 -22t114 -53.5t75 -62.5t44.5 -53l13 -22v162q0 22 14.5 36.5t34.5 14.5h109q29 0 45.5 -20t16.5 -44.5t-16.5 -44.5t-45.5 -20h-29v-817h29q29 0 45.5 -20t16.5 -44.5t-16.5 -44.5t-45.5 -20h-109 q-20 0 -34.5 14.5t-14.5 34.5v131q-66 -92 -166 -141t-219 -49q-148 0 -271.5 73.5t-193 198.5t-69.5 273zM240 537q0 -82 28 -157.5t78.5 -133.5t127 -92.5t167.5 -34.5q43 -1 93 11.5t105.5 43.5t100 76.5t73.5 118.5t29 161q0 109 -50.5 203.5t-144.5 153.5t-208 59 q-166 0 -282.5 -120.5t-116.5 -288.5zM524 1438q0 30 21 50.5t51 20.5q27 0 47 -20q53 -49 156 -152q23 -22 18 -48t-28 -34.5t-50 2.5q-93 59 -176 121q-39 31 -39 60z" />
<glyph unicode="&#xe1;" horiz-adv-x="1374" d="M113 535q0 109 40.5 208.5t110 172.5t166.5 116t205 43q80 0 150.5 -22t114 -53.5t75 -62.5t44.5 -53l13 -22v162q0 22 14.5 36.5t34.5 14.5h109q29 0 45.5 -20t16.5 -44.5t-16.5 -44.5t-45.5 -20h-29v-817h29q29 0 45.5 -20t16.5 -44.5t-16.5 -44.5t-45.5 -20h-109 q-20 0 -34.5 14.5t-14.5 34.5v131q-66 -92 -166 -141t-219 -49q-148 0 -271.5 73.5t-193 198.5t-69.5 273zM240 537q0 -82 28 -157.5t78.5 -133.5t127 -92.5t167.5 -34.5q43 -1 93 11.5t105.5 43.5t100 76.5t73.5 118.5t29 161q0 109 -50.5 203.5t-144.5 153.5t-208 59 q-166 0 -282.5 -120.5t-116.5 -288.5zM555 1289q-3 23 18 48l156 152q20 20 47 20q30 0 51 -20.5t21 -50.5q0 -36 -39 -60l-176 -121q-25 -14 -50 -2.5t-28 34.5z" />
<glyph unicode="&#xe2;" horiz-adv-x="1374" d="M113 535q0 109 40.5 208.5t110 172.5t166.5 116t205 43q80 0 150.5 -22t114 -53.5t75 -62.5t44.5 -53l13 -22v162q0 22 14.5 36.5t34.5 14.5h109q29 0 45.5 -20t16.5 -44.5t-16.5 -44.5t-45.5 -20h-29v-817h29q29 0 45.5 -20t16.5 -44.5t-16.5 -44.5t-45.5 -20h-109 q-20 0 -34.5 14.5t-14.5 34.5v131q-66 -92 -166 -141t-219 -49q-148 0 -271.5 73.5t-193 198.5t-69.5 273zM240 537q0 -82 28 -157.5t78.5 -133.5t127 -92.5t167.5 -34.5q43 -1 93 11.5t105.5 43.5t100 76.5t73.5 118.5t29 161q0 109 -50.5 203.5t-144.5 153.5t-208 59 q-166 0 -282.5 -120.5t-116.5 -288.5zM459.5 1306.5q-2.5 19.5 9.5 34.5l178 156q17 17 39 17t39 -17l178 -156q14 -13 9 -34.5t-23 -30t-45 5.5l-158 86l-158 -86q-25 -15 -45.5 -5t-23 29.5z" />
<glyph unicode="&#xe3;" horiz-adv-x="1374" d="M113 535q0 109 40.5 208.5t110 172.5t166.5 116t205 43q80 0 150.5 -22t114 -53.5t75 -62.5t44.5 -53l13 -22v162q0 22 14.5 36.5t34.5 14.5h109q29 0 45.5 -20t16.5 -44.5t-16.5 -44.5t-45.5 -20h-29v-817h29q29 0 45.5 -20t16.5 -44.5t-16.5 -44.5t-45.5 -20h-109 q-20 0 -34.5 14.5t-14.5 34.5v131q-66 -92 -166 -141t-219 -49q-148 0 -271.5 73.5t-193 198.5t-69.5 273zM240 537q0 -82 28 -157.5t78.5 -133.5t127 -92.5t167.5 -34.5q43 -1 93 11.5t105.5 43.5t100 76.5t73.5 118.5t29 161q0 109 -50.5 203.5t-144.5 153.5t-208 59 q-166 0 -282.5 -120.5t-116.5 -288.5zM444.5 1332.5q-2.5 25.5 12.5 49.5q55 74 139 74q33 0 89.5 -30.5t90.5 -30.5q21 0 43 26q20 24 44.5 26t45.5 -17q18 -15 21 -41t-12 -50q-54 -73 -140 -73q-33 0 -89.5 30.5t-90.5 30.5q-20 0 -43 -27q-41 -50 -90 -8 q-18 15 -20.5 40.5z" />
<glyph unicode="&#xe4;" horiz-adv-x="1374" d="M113 535q0 109 40.5 208.5t110 172.5t166.5 116t205 43q80 0 150.5 -22t114 -53.5t75 -62.5t44.5 -53l13 -22v162q0 22 14.5 36.5t34.5 14.5h109q29 0 45.5 -20t16.5 -44.5t-16.5 -44.5t-45.5 -20h-29v-817h29q29 0 45.5 -20t16.5 -44.5t-16.5 -44.5t-45.5 -20h-109 q-20 0 -34.5 14.5t-14.5 34.5v131q-66 -92 -166 -141t-219 -49q-148 0 -271.5 73.5t-193 198.5t-69.5 273zM240 537q0 -82 28 -157.5t78.5 -133.5t127 -92.5t167.5 -34.5q43 -1 93 11.5t105.5 43.5t100 76.5t73.5 118.5t29 161q0 109 -50.5 203.5t-144.5 153.5t-208 59 q-166 0 -282.5 -120.5t-116.5 -288.5zM403 1331q0 37 26 63.5t63 26.5t62.5 -26.5t25.5 -63.5q0 -36 -26 -62t-62 -26t-62.5 26.5t-26.5 61.5zM795 1331q0 -36 26 -62t62 -26t62 26t26 62q0 37 -25.5 63.5t-62.5 26.5t-62.5 -26.5t-25.5 -63.5z" />
<glyph unicode="&#xe5;" horiz-adv-x="1374" d="M113 535q0 109 40.5 208.5t110 172.5t166.5 116t205 43q80 0 150.5 -22t114 -53.5t75 -62.5t44.5 -53l13 -22v162q0 22 14.5 36.5t34.5 14.5h109q29 0 45.5 -20t16.5 -44.5t-16.5 -44.5t-45.5 -20h-29v-817h29q29 0 45.5 -20t16.5 -44.5t-16.5 -44.5t-45.5 -20h-109 q-20 0 -34.5 14.5t-14.5 34.5v131q-66 -92 -166 -141t-219 -49q-148 0 -271.5 73.5t-193 198.5t-69.5 273zM240 537q0 -82 28 -157.5t78.5 -133.5t127 -92.5t167.5 -34.5q43 -1 93 11.5t105.5 43.5t100 76.5t73.5 118.5t29 161q0 109 -50.5 203.5t-144.5 153.5t-208 59 q-166 0 -282.5 -120.5t-116.5 -288.5zM541 1354q0 61 43.5 104t105.5 43q59 0 101.5 -42.5t42.5 -102.5t-44 -104t-102 -44q-59 0 -103 44t-44 102zM621 1354q0 -27 20.5 -46.5t44.5 -19.5q30 0 50 20t20 48q0 27 -19.5 47t-48.5 20q-28 0 -47.5 -21t-19.5 -48z" />
<glyph unicode="&#xe8;" horiz-adv-x="1212" d="M113 535q0 109 41 210t110.5 176t167.5 119.5t205 44.5q141 0 251 -73.5t169 -195.5t63 -271q0 -31 -16 -54.5t-47 -23.5h-815q25 -154 142 -251t275 -97q60 0 131.5 13.5t118.5 37.5q64 32 90 -18q12 -21 5 -48t-33 -41q-59 -34 -147 -53.5t-162 -19.5q-155 0 -281.5 73 t-197 198t-70.5 274zM242 596h745q-26 161 -116.5 260.5t-235.5 99.5q-146 0 -257.5 -105t-135.5 -255zM444 1438q0 30 21 50.5t51 20.5q27 0 47 -20q53 -49 156 -152q23 -22 18 -48t-28 -34.5t-50 2.5q-94 59 -176 121q-39 31 -39 60z" />
<glyph unicode="&#xe9;" horiz-adv-x="1212" d="M113 535q0 109 41 210t110.5 176t167.5 119.5t205 44.5q141 0 251 -73.5t169 -195.5t63 -271q0 -31 -16 -54.5t-47 -23.5h-815q25 -154 142 -251t275 -97q60 0 131.5 13.5t118.5 37.5q64 32 90 -18q12 -21 5 -48t-33 -41q-59 -34 -147 -53.5t-162 -19.5q-155 0 -281.5 73 t-197 198t-70.5 274zM242 596h745q-26 161 -116.5 260.5t-235.5 99.5q-146 0 -257.5 -105t-135.5 -255zM475.5 1289q-3.5 23 18.5 48l155 152q20 20 47 20q30 0 51 -20.5t21 -50.5q0 -36 -39 -60l-176 -121q-25 -14 -49.5 -2.5t-28 34.5z" />
<glyph unicode="&#xea;" horiz-adv-x="1212" d="M113 535q0 109 41 210t110.5 176t167.5 119.5t205 44.5q141 0 251 -73.5t169 -195.5t63 -271q0 -31 -16 -54.5t-47 -23.5h-815q25 -154 142 -251t275 -97q60 0 131.5 13.5t118.5 37.5q64 32 90 -18q12 -21 5 -48t-33 -41q-59 -34 -147 -53.5t-162 -19.5q-155 0 -281.5 73 t-197 198t-70.5 274zM242 596h745q-26 161 -116.5 260.5t-235.5 99.5q-146 0 -257.5 -105t-135.5 -255zM412.5 1306.5q-2.5 19.5 9.5 34.5l178 156q17 17 39 17t39 -17l178 -156q14 -13 9 -34.5t-23 -30t-45 5.5l-158 86l-158 -86q-25 -15 -45.5 -5t-23 29.5z" />
<glyph unicode="&#xeb;" horiz-adv-x="1212" d="M113 535q0 109 41 210t110.5 176t167.5 119.5t205 44.5q141 0 251 -73.5t169 -195.5t63 -271q0 -31 -16 -54.5t-47 -23.5h-815q25 -154 142 -251t275 -97q60 0 131.5 13.5t118.5 37.5q64 32 90 -18q12 -21 5 -48t-33 -41q-59 -34 -147 -53.5t-162 -19.5q-155 0 -281.5 73 t-197 198t-70.5 274zM242 596h745q-26 161 -116.5 260.5t-235.5 99.5q-146 0 -257.5 -105t-135.5 -255zM354 1331q0 37 25.5 63.5t62.5 26.5t62.5 -26.5t25.5 -63.5q0 -36 -26 -62t-62 -26t-62 26t-26 62zM745 1331q0 -35 26.5 -61.5t62.5 -26.5t62 26t26 62 q0 37 -25.5 63.5t-62.5 26.5t-63 -26.5t-26 -63.5z" />
<glyph unicode="&#xec;" d="M133 1010.5q0 24.5 16.5 44.5t45.5 20h124q26 0 45 -17t19 -46v-883h59q29 0 45.5 -20t16.5 -44.5t-16.5 -44.5t-45.5 -20h-245q-29 0 -45.5 20t-16.5 44.5t16.5 44.5t45.5 20h57v817h-59q-29 0 -45.5 20t-16.5 44.5zM145 1438q0 30 20.5 50.5t51.5 20.5q27 0 47 -20 q53 -49 156 -152q23 -22 18 -48t-28 -34.5t-50 2.5q-93 59 -176 121q-39 31 -39 60z" />
<glyph unicode="&#xed;" d="M133 1010.5q0 24.5 16.5 44.5t45.5 20h124q26 0 45 -17t19 -46v-883h59q29 0 45.5 -20t16.5 -44.5t-16.5 -44.5t-45.5 -20h-245q-29 0 -45.5 20t-16.5 44.5t16.5 44.5t45.5 20h57v817h-59q-29 0 -45.5 20t-16.5 44.5zM176.5 1289q-3.5 23 18.5 48l155 152q20 20 47 20 q31 0 51.5 -20.5t20.5 -50.5q0 -36 -39 -60l-176 -121q-25 -14 -49.5 -2.5t-28 34.5z" />
<glyph unicode="&#xee;" d="M80.5 1306.5q-2.5 19.5 9.5 34.5l178 156q17 17 39 17t39 -17l178 -156q14 -13 9 -34.5t-23 -30t-45 5.5l-158 86l-157 -86q-25 -15 -46 -5t-23.5 29.5zM133 1010.5q0 24.5 16.5 44.5t45.5 20h124q26 0 45 -17t19 -46v-883h59q29 0 45.5 -20t16.5 -44.5t-16.5 -44.5 t-45.5 -20h-245q-29 0 -45.5 20t-16.5 44.5t16.5 44.5t45.5 20h57v817h-59q-29 0 -45.5 20t-16.5 44.5z" />
<glyph unicode="&#xef;" d="M25 1331q0 37 25.5 63.5t62.5 26.5t62.5 -26.5t25.5 -63.5q0 -36 -26 -62t-62 -26t-62 26t-26 62zM133 1010.5q0 24.5 16.5 44.5t45.5 20h124q26 0 45 -17t19 -46v-883h59q29 0 45.5 -20t16.5 -44.5t-16.5 -44.5t-45.5 -20h-245q-29 0 -45.5 20t-16.5 44.5t16.5 44.5 t45.5 20h57v817h-59q-29 0 -45.5 20t-16.5 44.5zM416 1331q0 -36 26 -62t62 -26t62 26t26 62q0 37 -25.5 63.5t-62.5 26.5t-62.5 -26.5t-25.5 -63.5z" />
<glyph unicode="&#xf1;" horiz-adv-x="1382" d="M143 1009.5q0 24.5 16.5 45t45.5 20.5h127q22 0 36.5 -14.5t14.5 -36.5v-115q58 85 154.5 125.5t207.5 40.5q112 0 198.5 -35.5t139.5 -99t80 -148t27 -186.5v-477h39q29 0 45.5 -20t16.5 -44.5t-16.5 -44.5t-45.5 -20h-205q-29 0 -45.5 20t-16.5 44.5t16.5 44.5t45.5 20 h37v477q0 157 -77.5 248.5t-238.5 91.5t-261.5 -92t-100.5 -272v-453h37q29 0 45.5 -20t16.5 -44.5t-16.5 -44.5t-45.5 -20h-205q-29 0 -45.5 20t-16.5 44.5t16.5 44.5t45.5 20h37v815h-47q-29 0 -45.5 20.5t-16.5 45zM448.5 1332.5q-2.5 25.5 12.5 49.5q55 74 139 74 q33 0 89.5 -30.5t90.5 -30.5q21 0 43 26q20 24 44.5 26t45.5 -17q18 -15 21 -41t-12 -50q-54 -73 -140 -73q-33 0 -89.5 30.5t-90.5 30.5q-20 0 -43 -27q-41 -50 -90 -8q-18 15 -20.5 40.5z" />
<glyph unicode="&#xf2;" horiz-adv-x="1312" d="M115 530q-1 109 41.5 210.5t115 176t173 119.5t208.5 45q140 0 267 -70t205.5 -194.5t74.5 -269.5q0 -149 -70 -275t-194 -201t-274 -77q-146 -2 -271.5 70.5t-199.5 197t-76 268.5zM242 532q3 -170 126.5 -290.5t293.5 -120.5q116 0 211 58.5t147.5 156t52.5 211.5 q0 110 -58 204t-153.5 147.5t-202.5 53.5q-171 0 -295.5 -124.5t-121.5 -295.5zM494 1438q0 30 20.5 50.5t50.5 20.5q27 0 47 -20q53 -49 156 -152q23 -22 18 -48t-27.5 -34.5t-49.5 2.5q-100 64 -177 121q-38 30 -38 60z" />
<glyph unicode="&#xf3;" horiz-adv-x="1312" d="M115 530q-1 109 41.5 210.5t115 176t173 119.5t208.5 45q140 0 267 -70t205.5 -194.5t74.5 -269.5q0 -149 -70 -275t-194 -201t-274 -77q-146 -2 -271.5 70.5t-199.5 197t-76 268.5zM242 532q3 -170 126.5 -290.5t293.5 -120.5q116 0 211 58.5t147.5 156t52.5 211.5 q0 110 -58 204t-153.5 147.5t-202.5 53.5q-171 0 -295.5 -124.5t-121.5 -295.5zM524.5 1289q-3.5 23 18.5 48l155 152q20 20 47 20q31 0 51.5 -20.5t20.5 -50.5q0 -36 -39 -60l-176 -121q-25 -14 -49.5 -2.5t-28 34.5z" />
<glyph unicode="&#xf4;" horiz-adv-x="1312" d="M115 530q-1 109 41.5 210.5t115 176t173 119.5t208.5 45q140 0 267 -70t205.5 -194.5t74.5 -269.5q0 -149 -70 -275t-194 -201t-274 -77q-146 -2 -271.5 70.5t-199.5 197t-76 268.5zM242 532q3 -170 126.5 -290.5t293.5 -120.5q116 0 211 58.5t147.5 156t52.5 211.5 q0 110 -58 204t-153.5 147.5t-202.5 53.5q-171 0 -295.5 -124.5t-121.5 -295.5zM428.5 1306.5q-2.5 19.5 9.5 34.5l178 156q17 17 39 17t39 -17l178 -156q14 -13 9 -34.5t-23 -30t-45 5.5l-158 86l-157 -86q-25 -15 -46 -5t-23.5 29.5z" />
<glyph unicode="&#xf5;" horiz-adv-x="1312" d="M115 530q-1 109 41.5 210.5t115 176t173 119.5t208.5 45q140 0 267 -70t205.5 -194.5t74.5 -269.5q0 -149 -70 -275t-194 -201t-274 -77q-146 -2 -271.5 70.5t-199.5 197t-76 268.5zM242 532q3 -170 126.5 -290.5t293.5 -120.5q116 0 211 58.5t147.5 156t52.5 211.5 q0 110 -58 204t-153.5 147.5t-202.5 53.5q-171 0 -295.5 -124.5t-121.5 -295.5zM413.5 1332.5q-2.5 25.5 12.5 49.5q55 74 139 74q33 0 89.5 -30.5t90.5 -30.5q21 0 43 26q20 24 45 26t46 -17q18 -15 20.5 -41.5t-12.5 -49.5q-54 -73 -139 -73q-33 0 -90 30.5t-91 30.5 q-21 0 -43 -27q-41 -50 -90 -8q-18 15 -20.5 40.5z" />
<glyph unicode="&#xf6;" horiz-adv-x="1312" d="M115 530q-1 109 41.5 210.5t115 176t173 119.5t208.5 45q140 0 267 -70t205.5 -194.5t74.5 -269.5q0 -149 -70 -275t-194 -201t-274 -77q-146 -2 -271.5 70.5t-199.5 197t-76 268.5zM242 532q3 -170 126.5 -290.5t293.5 -120.5q116 0 211 58.5t147.5 156t52.5 211.5 q0 110 -58 204t-153.5 147.5t-202.5 53.5q-171 0 -295.5 -124.5t-121.5 -295.5zM373 1331q0 37 25.5 63.5t62.5 26.5t62.5 -26.5t25.5 -63.5q0 -36 -26 -62t-62 -26t-62 26t-26 62zM764 1331q0 -36 26 -62t62 -26t62 26t26 62q0 37 -25.5 63.5t-62.5 26.5t-62.5 -26.5 t-25.5 -63.5z" />
<glyph unicode="&#xf9;" horiz-adv-x="1398" d="M100 1010.5q0 24.5 16.5 44.5t45.5 20h121q22 0 36.5 -14.5t14.5 -34.5v-557q0 -154 83.5 -247t246.5 -93q161 0 261.5 92.5t100.5 272.5v452h-43q-29 0 -45.5 20t-16.5 44.5t16.5 44.5t45.5 20h121q22 0 36.5 -14.5t14.5 -34.5v-895h49q29 0 45.5 -20.5t16.5 -45 t-16.5 -45t-45.5 -20.5h-127q-22 0 -36.5 14.5t-14.5 36.5v115q-58 -85 -154.5 -125.5t-207.5 -40.5q-222 0 -340.5 129.5t-118.5 339.5v477h-43q-29 0 -45.5 20t-16.5 44.5zM537 1438q0 30 20.5 50.5t50.5 20.5q27 0 47 -20q53 -49 156 -152q23 -22 18 -48t-27.5 -34.5 t-49.5 2.5q-100 64 -177 121q-38 30 -38 60z" />
<glyph unicode="&#xfa;" horiz-adv-x="1398" d="M100 1010.5q0 24.5 16.5 44.5t45.5 20h121q22 0 36.5 -14.5t14.5 -34.5v-557q0 -154 83.5 -247t246.5 -93q161 0 261.5 92.5t100.5 272.5v452h-43q-29 0 -45.5 20t-16.5 44.5t16.5 44.5t45.5 20h121q22 0 36.5 -14.5t14.5 -34.5v-895h49q29 0 45.5 -20.5t16.5 -45 t-16.5 -45t-45.5 -20.5h-127q-22 0 -36.5 14.5t-14.5 36.5v115q-58 -85 -154.5 -125.5t-207.5 -40.5q-222 0 -340.5 129.5t-118.5 339.5v477h-43q-29 0 -45.5 20t-16.5 44.5zM506 1289q-3 23 18 48l156 152q20 20 47 20q31 0 51.5 -20.5t20.5 -50.5q0 -36 -39 -60l-176 -121 q-25 -14 -50 -2.5t-28 34.5z" />
<glyph unicode="&#xfb;" horiz-adv-x="1398" d="M100 1010.5q0 24.5 16.5 44.5t45.5 20h121q22 0 36.5 -14.5t14.5 -34.5v-557q0 -154 83.5 -247t246.5 -93q161 0 261.5 92.5t100.5 272.5v452h-43q-29 0 -45.5 20t-16.5 44.5t16.5 44.5t45.5 20h121q22 0 36.5 -14.5t14.5 -34.5v-895h49q29 0 45.5 -20.5t16.5 -45 t-16.5 -45t-45.5 -20.5h-127q-22 0 -36.5 14.5t-14.5 36.5v115q-58 -85 -154.5 -125.5t-207.5 -40.5q-222 0 -340.5 129.5t-118.5 339.5v477h-43q-29 0 -45.5 20t-16.5 44.5zM451.5 1306.5q-2.5 19.5 9.5 34.5l178 156q17 17 39 17t39 -17l178 -156q14 -13 9 -34.5t-23 -30 t-45 5.5l-158 86l-158 -86q-25 -15 -45.5 -5t-23 29.5z" />
<glyph unicode="&#xfc;" horiz-adv-x="1398" d="M100 1010.5q0 24.5 16.5 44.5t45.5 20h121q22 0 36.5 -14.5t14.5 -34.5v-557q0 -154 83.5 -247t246.5 -93q161 0 261.5 92.5t100.5 272.5v452h-43q-29 0 -45.5 20t-16.5 44.5t16.5 44.5t45.5 20h121q22 0 36.5 -14.5t14.5 -34.5v-895h49q29 0 45.5 -20.5t16.5 -45 t-16.5 -45t-45.5 -20.5h-127q-22 0 -36.5 14.5t-14.5 36.5v115q-58 -85 -154.5 -125.5t-207.5 -40.5q-222 0 -340.5 129.5t-118.5 339.5v477h-43q-29 0 -45.5 20t-16.5 44.5zM395 1331q0 37 25.5 63.5t62.5 26.5t62.5 -26.5t25.5 -63.5q0 -36 -26 -62t-62 -26t-62 26t-26 62 zM786 1331q0 -36 26 -62t62 -26t62.5 26.5t26.5 61.5q0 37 -26 63.5t-63 26.5t-62.5 -26.5t-25.5 -63.5z" />
<glyph unicode="&#xfd;" horiz-adv-x="1396" d="M89 976.5q-16 32.5 0 65.5t56 33h224q40 0 56 -33t0 -65.5t-56 -32.5h-33l354 -786l33 63l354 723h-30q-40 0 -56 32.5t0 65.5t56 33h204q40 0 56 -33t0 -65.5t-56 -32.5h-32l-627 -1245h33q40 0 56 -32.5t0 -65.5t-56 -33h-224q-40 0 -56 32.5t0 65.5t56 33h50l161 305 l4 8l-419 932h-52q-40 0 -56 32.5zM567.5 1289q-3.5 23 18.5 48l155 152q20 20 47 20q30 0 51 -20.5t21 -50.5q0 -36 -39 -60l-176 -121q-25 -14 -49.5 -2.5t-28 34.5z" />
<glyph unicode="&#xff;" horiz-adv-x="1396" d="M89 976.5q-16 32.5 0 65.5t56 33h224q40 0 56 -33t0 -65.5t-56 -32.5h-33l354 -786l33 63l354 723h-30q-40 0 -56 32.5t0 65.5t56 33h204q40 0 56 -33t0 -65.5t-56 -32.5h-32l-627 -1245h33q40 0 56 -32.5t0 -65.5t-56 -33h-224q-40 0 -56 32.5t0 65.5t56 33h50l161 305 l4 8l-419 932h-52q-40 0 -56 32.5zM414 1331q0 37 25.5 63.5t62.5 26.5t62.5 -26.5t25.5 -63.5q0 -36 -26 -62t-62 -26t-62 26t-26 62zM805 1331q0 -36 26 -62t62 -26t62 26t26 62q0 37 -25.5 63.5t-62.5 26.5t-62.5 -26.5t-25.5 -63.5z" />
<glyph unicode="&#x178;" horiz-adv-x="1488" d="M100 1402q-16 32 0 64.5t56 32.5h161q28 0 45 -19.5t17.5 -43t-14 -44t-41.5 -22.5l421 -676l420 676q-36 3 -50 35t2 63t54 31h164q29 0 45.5 -20t16.5 -44.5t-16.5 -44.5t-45.5 -20h-16l-510 -797v-444h16q40 0 56 -32t0 -64.5t-56 -32.5h-161q-29 0 -45.5 20 t-16.5 44.5t16.5 44.5t45.5 20h16v444l-510 797h-14q-40 0 -56 32zM461 1757q0 37 25.5 63.5t62.5 26.5t62.5 -26.5t25.5 -63.5q0 -36 -26 -62t-62 -26t-62 26t-26 62zM852 1757q0 -36 26 -62t62 -26t62 26t26 62q0 37 -25.5 63.5t-62.5 26.5t-62.5 -26.5t-25.5 -63.5z" />
<glyph unicode="&#x2c6;" horiz-adv-x="548" d="M47.5 1306.5q-2.5 19.5 9.5 34.5l179 156q17 17 38.5 17t38.5 -17l179 -156q14 -13 9 -34.5t-23.5 -30t-45.5 5.5l-158 86l-157 -86q-25 -15 -46 -5t-23.5 29.5z" />
<glyph unicode="&#x2dc;" horiz-adv-x="653" d="M83.5 1332.5q-2.5 25.5 12.5 49.5q55 74 140 74q33 0 89.5 -30.5t90.5 -30.5q21 0 43 26q20 24 44.5 26t45.5 -17q18 -15 20.5 -41.5t-12.5 -49.5q-54 -73 -139 -73q-33 0 -89.5 30.5t-90.5 30.5q-20 0 -43 -27q-20 -24 -45 -25.5t-46 17.5q-18 15 -20.5 40.5z" />
<glyph unicode="&#x2000;" horiz-adv-x="970" />
<glyph unicode="&#x2001;" horiz-adv-x="1940" />
<glyph unicode="&#x2002;" horiz-adv-x="970" />
<glyph unicode="&#x2003;" horiz-adv-x="1940" />
<glyph unicode="&#x2004;" horiz-adv-x="646" />
<glyph unicode="&#x2005;" horiz-adv-x="485" />
<glyph unicode="&#x2006;" horiz-adv-x="323" />
<glyph unicode="&#x2007;" horiz-adv-x="323" />
<glyph unicode="&#x2008;" horiz-adv-x="242" />
<glyph unicode="&#x2009;" horiz-adv-x="388" />
<glyph unicode="&#x200a;" horiz-adv-x="107" />
<glyph unicode="&#x2010;" horiz-adv-x="937" d="M102 516q0 27 16.5 46.5t45.5 19.5h608q30 0 47 -19.5t17 -46.5t-16.5 -45t-47.5 -18h-608q-29 0 -45.5 18.5t-16.5 44.5z" />
<glyph unicode="&#x2011;" horiz-adv-x="937" d="M102 516q0 27 16.5 46.5t45.5 19.5h608q30 0 47 -19.5t17 -46.5t-16.5 -45t-47.5 -18h-608q-29 0 -45.5 18.5t-16.5 44.5z" />
<glyph unicode="&#x2012;" horiz-adv-x="937" d="M102 516q0 27 16.5 46.5t45.5 19.5h608q30 0 47 -19.5t17 -46.5t-16.5 -45t-47.5 -18h-608q-29 0 -45.5 18.5t-16.5 44.5z" />
<glyph unicode="&#x2013;" horiz-adv-x="1445" d="M102 516q0 27 16.5 46.5t45.5 19.5h1116q30 0 46.5 -19.5t16.5 -46.5t-16 -45t-47 -18h-1116q-29 0 -45.5 18.5t-16.5 44.5z" />
<glyph unicode="&#x2014;" horiz-adv-x="1753" d="M102 516q0 27 16.5 46.5t45.5 19.5h1423q30 0 47 -19.5t17 -46.5t-16.5 -45t-47.5 -18h-1423q-29 0 -45.5 18.5t-16.5 44.5z" />
<glyph unicode="&#x2018;" horiz-adv-x="444" d="M133 1245q0 20 17 66q6 14 63 159q12 34 43 28t25 -42l-39 -145q31 0 50 -22.5t19 -47.5q0 -34 -23.5 -60t-62.5 -26q-43 0 -67.5 27.5t-24.5 62.5z" />
<glyph unicode="&#x2019;" horiz-adv-x="444" d="M133 1413q0 34 23.5 60t62.5 26q43 0 67.5 -27.5t24.5 -62.5q0 -23 -16 -66q-8 -21 -30 -74.5t-34 -84.5q-12 -34 -42.5 -28t-24.5 42l39 145q-31 0 -50.5 22.5t-19.5 47.5z" />
<glyph unicode="&#x201a;" horiz-adv-x="444" d="M133 70q0 34 23.5 60t62.5 26q43 0 67.5 -27.5t24.5 -62.5q0 -23 -16 -66q-9 -22 -31 -76.5t-33 -83.5q-12 -34 -42.5 -27.5t-24.5 42.5l39 145q-31 0 -50.5 22.5t-19.5 47.5z" />
<glyph unicode="&#x201c;" horiz-adv-x="735" d="M133 1247q0 20 17 66q29 75 63 160q12 34 43 27.5t25 -42.5l-39 -145q31 0 50 -22.5t19 -47.5q0 -34 -23.5 -60t-62.5 -26q-43 0 -67.5 27.5t-24.5 62.5zM424 1247q0 23 16 66q9 22 31 76.5t33 83.5q12 34 42.5 27.5t24.5 -42.5l-39 -145q31 0 50.5 -22.5t19.5 -47.5 q0 -34 -23.5 -60t-62.5 -26q-43 0 -67.5 27.5t-24.5 62.5z" />
<glyph unicode="&#x201d;" horiz-adv-x="735" d="M133 1432q0 34 23.5 60t62.5 26q43 0 67.5 -28t24.5 -63q0 -22 -16 -65q-9 -22 -31 -76.5t-33 -83.5q-12 -34 -42.5 -27.5t-24.5 42.5l39 145q-31 0 -50.5 22.5t-19.5 47.5zM424 1432q0 34 23.5 60t62.5 26q43 0 67.5 -28t24.5 -63q0 -22 -16 -65q-9 -22 -31 -76.5 t-33 -83.5q-12 -34 -42.5 -27.5t-24.5 42.5l39 145q-31 0 -50.5 22.5t-19.5 47.5z" />
<glyph unicode="&#x201e;" horiz-adv-x="735" d="M133 70q0 34 23.5 60t62.5 26q43 0 67.5 -27.5t24.5 -62.5q0 -23 -16 -66q-9 -22 -31 -76.5t-33 -83.5q-12 -34 -42.5 -27.5t-24.5 42.5l39 145q-31 0 -50.5 22.5t-19.5 47.5zM424 70q0 34 23.5 60t62.5 26q43 0 67.5 -27.5t24.5 -62.5q0 -23 -16 -66q-9 -22 -31 -76.5 t-33 -83.5q-12 -34 -42.5 -27.5t-24.5 42.5l39 145q-31 0 -50.5 22.5t-19.5 47.5z" />
<glyph unicode="&#x2026;" horiz-adv-x="751" d="M102 70q0 29 21 50t49 21q29 0 50.5 -21t21.5 -50q0 -28 -21.5 -49t-50.5 -21q-28 0 -49 21t-21 49zM307 70q0 29 20.5 50t49.5 21t49 -21t20 -50q0 -28 -20 -49t-49 -21t-49.5 21t-20.5 49zM510 70q0 29 20.5 50t49.5 21t49 -21t20 -50q0 -28 -20 -49t-49 -21t-49.5 21 t-20.5 49z" />
<glyph unicode="&#x202f;" horiz-adv-x="388" />
<glyph unicode="&#x205f;" horiz-adv-x="485" />
<glyph unicode="&#x20ac;" horiz-adv-x="1646" d="M113 926q0 27 16 46t45 19h131q20 98 69 182t116 143.5t148.5 102t168.5 62.5t174 20q112 0 228 -42.5t159 -106.5l-2 90q0 29 17.5 43t43.5 14t45 -14t19 -43v-299q0 -28 -14 -48t-43 -20q-24 0 -41 15.5t-17 39.5v17q-2 87 -108 157t-287 70q-116 0 -225 -41t-197 -130 t-121 -212h363q29 0 46 -19.5t17 -45.5q0 -27 -17 -46.5t-46 -19.5h-393q-14 -98 0 -198h401q29 0 46 -19.5t17 -46.5t-17 -46.5t-46 -19.5h-373q68 -186 211 -294.5t357 -108.5q233 0 421 188q19 19 45.5 20t45.5 -18t19 -45t-19 -45q-104 -110 -236.5 -168.5t-280.5 -58.5 q-137 0 -253.5 39.5t-202.5 111.5t-146.5 167t-95.5 212h-119q-29 0 -45 19.5t-16 46.5t16 46.5t45 19.5h94q-2 10 -4 27t-4.5 71t6.5 100h-100q-29 0 -45 19.5t-16 46.5z" />
<glyph unicode="&#x2122;" horiz-adv-x="1413" d="M94 1440v35q0 12 7 19t18 7h426q22 0 22 -26v-35q0 -16 -12.5 -22t-24.5 0t-12 22v10h-162v-485h15q16 0 22 -13t0 -26t-22 -13h-80q-23 0 -23 26t23 26h14v485h-160v-10q0 -16 -12.5 -22t-25.5 0t-13 22zM666 926q-6 13 0 26t22 13h14v483h-14q-16 0 -22 13t0 26.5 t22 13.5h27q6 0 12 -2.5t9 -4.5l3 -3l219 -324l209 318q17 16 35 16h25q16 0 22 -13.5t0 -26.5t-22 -13h-15v-483h15q16 0 22 -13t0 -26t-22 -13h-80q-16 0 -22 13t0 26t22 13h16v415l-188 -268q-5 -8 -15 -9t-18 9l-188 268v-415h14q23 0 23 -26t-23 -26h-80q-16 0 -22 13z " />
<glyph unicode="&#x25fc;" horiz-adv-x="1075" d="M0 0v1075h1075v-1075h-1075z" />
</font>
</defs>
</svg>
